<svg xmlns="http://www.w3.org/2000/svg" version="1.1" xmlns:xlink="http://www.w3.org/1999/xlink" xmlns:svgjs="http://svgjs.com/svgjs" width="720" height="280" preserveAspectRatio="none" viewBox="0 0 720 280"><g mask="url(&quot;#SvgjsMask17169&quot;)" fill="none"><rect width="720" height="280" x="0" y="0" fill="rgba(0, 0, 0, 1)"></rect><rect width="168" height="168" clip-path="url(&quot;#SvgjsClipPath17170&quot;)" x="38.82" y="32.08" fill="url(#SvgjsPattern17171)" transform="rotate(261.5, 122.82, 116.08)"></rect><rect width="60" height="60" clip-path="url(&quot;#SvgjsClipPath17172&quot;)" x="459.22" y="11.69" fill="url(#SvgjsPattern17173)" transform="rotate(42.52, 489.22, 41.69)"></rect><circle r="23.333333333333332" cx="36.53" cy="204.92" stroke="rgba(232, 23, 184, 0.3)" stroke-width="1.88" stroke-dasharray="3, 3"></circle><rect width="73.8" height="73.8" clip-path="url(&quot;#SvgjsClipPath17174&quot;)" x="38.33" y="160.4" fill="url(#SvgjsPattern17175)" transform="rotate(351.8, 75.23, 197.3)"></rect><path d="M125.2 19.08a5.6 5.6 0 1 0 2.4-10.94 5.6 5.6 0 1 0-2.4 10.94zM128.64 3.45a5.6 5.6 0 1 0 2.41-10.94 5.6 5.6 0 1 0-2.41 10.94zM132.08-12.17a5.6 5.6 0 1 0 2.41-10.94 5.6 5.6 0 1 0-2.41 10.94zM135.52-27.8a5.6 5.6 0 1 0 2.41-10.94 5.6 5.6 0 1 0-2.41 10.94z" fill="rgba(255, 255, 255, 0.24)"></path><path d="M554.76 121.38a5.6 5.6 0 1 0-5.83 9.56 5.6 5.6 0 1 0 5.83-9.56zM546.43 135.04a5.6 5.6 0 1 0-5.83 9.56 5.6 5.6 0 1 0 5.83-9.56zM538.1 148.7a5.6 5.6 0 1 0-5.84 9.56 5.6 5.6 0 1 0 5.84-9.56zM529.76 162.36a5.6 5.6 0 1 0-5.83 9.56 5.6 5.6 0 1 0 5.83-9.56zM557.76 85.73a5.6 5.6 0 1 0-5.83 9.56 5.6 5.6 0 1 0 5.83-9.56zM549.43 99.39a5.6 5.6 0 1 0-5.83 9.56 5.6 5.6 0 1 0 5.83-9.56zM541.1 113.05a5.6 5.6 0 1 0-5.83 9.56 5.6 5.6 0 1 0 5.83-9.56zM532.77 126.71a5.6 5.6 0 1 0-5.83 9.56 5.6 5.6 0 1 0 5.83-9.56zM560.77 50.08a5.6 5.6 0 1 0-5.84 9.56 5.6 5.6 0 1 0 5.84-9.56zM552.43 63.74a5.6 5.6 0 1 0-5.83 9.56 5.6 5.6 0 1 0 5.83-9.56zM544.1 77.4a5.6 5.6 0 1 0-5.83 9.56 5.6 5.6 0 1 0 5.83-9.56zM535.77 91.05a5.6 5.6 0 1 0-5.83 9.57 5.6 5.6 0 1 0 5.83-9.57z" fill="rgba(227, 14, 112, 0.13)"></path><rect width="60" height="60" clip-path="url(&quot;#SvgjsClipPath17176&quot;)" x="-16.75" y="187.62" fill="url(#SvgjsPattern17177)" transform="rotate(199.8, 13.25, 217.62)"></rect><circle r="40.58737301461055" cx="654.36" cy="23.79" stroke="rgba(255, 255, 255, 0.24)" stroke-width="2.89" stroke-dasharray="3, 3"></circle><path d="M208.9 202.35L197.4 196.72 200.37 184.26 188.87 178.62 191.84 166.17 180.34 160.53 183.31 148.08" stroke="rgba(232, 23, 184, 0.3)" stroke-width="1.36" stroke-dasharray="4, 4"></path><path d="M599.42 214.73L601.95 202.18 614.75 201.89 617.28 189.33 630.08 189.04 632.61 176.49 645.41 176.2M604.56 220.86L607.08 208.31 619.89 208.02 622.41 195.46 635.22 195.17 637.74 182.62 650.55 182.33M609.7 226.99L612.22 214.44 625.03 214.15 627.55 201.59 640.36 201.3 642.88 188.75 655.69 188.46" stroke="rgba(255, 255, 255, 0.24)" stroke-width="2.79" stroke-dasharray="4, 4"></path><path d="M249.82 221.57999999999998 L258.68 147.96L216.73150061742822 147.2515006174282z" stroke="rgba(232, 23, 184, 0.3)" stroke-width="2.92" stroke-dasharray="3, 2"></path><path d="M156.22 80.74L151.51 92.65 138.86 90.67 134.15 102.58 121.5 100.6 116.79 112.51 104.14 110.53M152.25 73.8L147.54 85.71 134.89 83.73 130.18 95.64 117.53 93.66 112.82 105.57 100.17 103.59" stroke="rgba(227, 14, 112, 0.13)" stroke-width="1" stroke-dasharray="3, 2"></path></g><defs><mask id="SvgjsMask17169"><rect width="720" height="280" fill="#ffffff"></rect></mask><pattern x="0" y="0" width="6" height="6" patternUnits="userSpaceOnUse" id="SvgjsPattern17171"><path d="M3 1L3 5M1 3L5 3" stroke="rgba(255, 255, 255, 0.24)" fill="none" stroke-width="1"></path></pattern><clipPath id="SvgjsClipPath17170"><circle r="42" cx="122.82" cy="116.08"></circle></clipPath><pattern x="0" y="0" width="6" height="6" patternUnits="userSpaceOnUse" id="SvgjsPattern17173"><path d="M0 6L3 0L6 6" stroke="rgba(232, 23, 184, 0.3)" fill="none"></path></pattern><clipPath id="SvgjsClipPath17172"><circle r="15" cx="489.22" cy="41.69"></circle></clipPath><pattern x="0" y="0" width="7.38" height="7.38" patternUnits="userSpaceOnUse" id="SvgjsPattern17175"><path d="M0 7.38L3.69 0L7.38 7.38" stroke="rgba(227, 14, 112, 0.13)" fill="none"></path></pattern><clipPath id="SvgjsClipPath17174"><circle r="18.45" cx="75.23" cy="197.3"></circle></clipPath><pattern x="0" y="0" width="6" height="6" patternUnits="userSpaceOnUse" id="SvgjsPattern17177"><path d="M3 1L3 5M1 3L5 3" stroke="rgba(255, 255, 255, 0.24)" fill="none" stroke-width="1"></path></pattern><clipPath id="SvgjsClipPath17176"><circle r="15" cx="13.25" cy="217.62"></circle></clipPath></defs></svg>