<svg xmlns="http://www.w3.org/2000/svg" version="1.1" xmlns:xlink="http://www.w3.org/1999/xlink" xmlns:svgjs="http://svgjs.com/svgjs" width="1440" height="560" preserveAspectRatio="none" viewBox="0 0 1440 560"><g mask="url(&quot;#SvgjsMask1014&quot;)" fill="none"><path d="M1005.66 28.6L1045.2 28.6L1045.2 76.73L1005.66 76.73z" stroke="#e73635"></path><path d="M494.4 251.09 a34.48 34.48 0 1 0 68.96 0 a34.48 34.48 0 1 0 -68.96 0z" stroke="#e73635"></path><path d="M519.06 114.41L530.95 114.41L530.95 126.3L519.06 126.3z" stroke="#037b0b"></path><path d="M901.26 404.4L945.41 404.4L945.41 431.71L901.26 431.71z" stroke="#037b0b"></path><path d="M11.38 320.47L22.54 320.47L22.54 331.63L11.38 331.63z" fill="#e73635"></path><path d="M372.55 321.9L407.31 321.9L407.31 340.75L372.55 340.75z" stroke="#e73635"></path><path d="M753.85 482.6 a53.61 53.61 0 1 0 107.22 0 a53.61 53.61 0 1 0 -107.22 0z" stroke="#037b0b"></path><path d="M1265.04 6.31L1318.56 6.31L1318.56 25.14L1265.04 25.14z" fill="#e73635"></path><path d="M314.68 529.84 a41.58 41.58 0 1 0 83.16 0 a41.58 41.58 0 1 0 -83.16 0z" stroke="#e73635"></path><path d="M24.67 117.24 a46.29 46.29 0 1 0 92.58 0 a46.29 46.29 0 1 0 -92.58 0z" fill="#d3b714"></path><path d="M669.75 365.12a54.65 54.65 0 1 0 61.03-90.68z" fill="#d3b714"></path><path d="M912.71 381.43L937.46 381.43L937.46 381.47L912.71 381.47z" fill="#d3b714"></path><path d="M676.54 230.19L720.82 230.19L720.82 274.47L676.54 274.47z" stroke="#d3b714"></path><path d="M611.7 184.33L659.41 184.33L659.41 232.04L611.7 232.04z" stroke="#037b0b"></path><path d="M907.76 200.18L928.85 200.18L928.85 227.42L907.76 227.42z" fill="#e73635"></path><path d="M1168.62 30.44L1170.66 30.44L1170.66 32.65L1168.62 32.65z" stroke="#d3b714"></path><path d="M1313.85 208.61 a50.99 50.99 0 1 0 101.98 0 a50.99 50.99 0 1 0 -101.98 0z" fill="#d3b714"></path><path d="M320.32 143.04L349.2 143.04L349.2 171.92L320.32 171.92z" stroke="#037b0b"></path><path d="M967.05 0.3a31.77 31.77 0 1 0 42.73 47.03z" fill="#e73635"></path><path d="M824.11 150.9L848.99 150.9L848.99 175.78L824.11 175.78z" stroke="#d3b714"></path><path d="M1100.97 225.35 a18.65 18.65 0 1 0 37.3 0 a18.65 18.65 0 1 0 -37.3 0z" fill="#e73635"></path><path d="M475.12 324.49a14.11 14.11 0 1 0-26.95 8.37z" stroke="#e73635"></path><path d="M1391.1 270.35L1393.63 270.35L1393.63 301.43L1391.1 301.43z" fill="#d3b714"></path><path d="M811.88 203.59 a13.34 13.34 0 1 0 26.68 0 a13.34 13.34 0 1 0 -26.68 0z" fill="#d3b714"></path><path d="M536.34 471.31 a23.09 23.09 0 1 0 46.18 0 a23.09 23.09 0 1 0 -46.18 0z" fill="#e73635"></path><path d="M521.2 318.12L574.32 318.12L574.32 371.24L521.2 371.24z" stroke="#037b0b"></path><path d="M638.71 42.57L687.02 42.57L687.02 90.88L638.71 90.88z" stroke="#037b0b"></path><path d="M1397.28 29.29 a39.08 39.08 0 1 0 78.16 0 a39.08 39.08 0 1 0 -78.16 0z" fill="#d3b714"></path><path d="M1025.37 427.11L1029.15 427.11L1029.15 430.89L1025.37 430.89z" stroke="#e73635"></path><path d="M212.17 89.49L217.06 89.49L217.06 94.38L212.17 94.38z" stroke="#d3b714"></path><path d="M131.16 95.21L181.89 95.21L181.89 100.55L131.16 100.55z" fill="#037b0b"></path><path d="M509.83 47.53a53.29 53.29 0 1 0 7.67 106.31z" fill="#037b0b"></path><path d="M252.5 542.83 a39.76 39.76 0 1 0 79.52 0 a39.76 39.76 0 1 0 -79.52 0z" stroke="#e73635"></path></g><defs><mask id="SvgjsMask1014"><rect width="1440" height="560" fill="#ffffff"></rect></mask></defs></svg>