<svg width="395" height="79.301" viewBox="0 0 395 79.301" xmlns="http://www.w3.org/2000/svg"><g id="svgGroup" stroke-linecap="round" fill-rule="evenodd" font-size="9pt" stroke="#ffffff" stroke-width="0.25mm" fill="#ffffff" style="stroke:#ffffff;stroke-width:0.25mm;fill:#ffffff"><path d="M 0 58.3 L 15 58.3 A 11.812 11.812 0 0 0 15.608 61.385 A 8.907 8.907 0 0 0 18.05 65.1 Q 20.8 67.6 25.6 67.6 A 16.492 16.492 0 0 0 28.688 67.329 Q 30.458 66.991 31.853 66.233 A 8.72 8.72 0 0 0 33.3 65.25 A 7.553 7.553 0 0 0 36.079 59.743 A 9.832 9.832 0 0 0 36.1 59.1 A 8.284 8.284 0 0 0 35.762 56.681 A 6.649 6.649 0 0 0 34.2 54 A 12.79 12.79 0 0 0 30.734 51.436 A 15.528 15.528 0 0 0 29.45 50.85 A 44.589 44.589 0 0 0 27.459 50.107 Q 25.038 49.263 21.6 48.3 Q 17.031 46.957 13.614 45.636 A 54.445 54.445 0 0 1 10.55 44.35 A 19.203 19.203 0 0 1 3.642 38.944 A 22.569 22.569 0 0 1 3.25 38.45 A 13.807 13.807 0 0 1 0.876 33.527 Q 0.348 31.558 0.232 29.232 A 26.854 26.854 0 0 1 0.2 27.9 A 20.893 20.893 0 0 1 0.999 22.016 A 17.547 17.547 0 0 1 3.3 17.1 A 19.175 19.175 0 0 1 10.23 10.912 A 23.793 23.793 0 0 1 12 10.05 A 28.856 28.856 0 0 1 19.625 7.945 A 37.525 37.525 0 0 1 24.8 7.6 A 44.244 44.244 0 0 1 24.969 7.601 Q 35.653 7.641 42.35 12.85 Q 49.1 18.1 49.8 27.5 L 34.4 27.5 A 7.955 7.955 0 0 0 31.611 21.774 A 10.059 10.059 0 0 0 31.35 21.55 A 9.855 9.855 0 0 0 27.436 19.619 Q 25.99 19.253 24.291 19.207 A 18.226 18.226 0 0 0 23.8 19.2 Q 19.7 19.2 17.25 21.3 A 6.766 6.766 0 0 0 15.064 24.98 A 10.445 10.445 0 0 0 14.8 27.4 A 6.951 6.951 0 0 0 15.2 29.798 A 6.126 6.126 0 0 0 16.65 32.05 Q 18.5 33.9 21.25 35.05 A 45.219 45.219 0 0 0 23.188 35.803 Q 25.563 36.669 29 37.7 Q 33.894 39.14 37.493 40.579 A 51.846 51.846 0 0 1 40.1 41.7 Q 44.4 43.7 47.5 47.7 A 14.135 14.135 0 0 1 50.007 52.991 Q 50.517 55.024 50.588 57.41 A 26.311 26.311 0 0 1 50.6 58.2 Q 50.6 63.8 47.7 68.6 A 19.646 19.646 0 0 1 41.521 74.91 A 24.71 24.71 0 0 1 39.2 76.25 Q 33.6 79.1 25.9 79.1 A 36.666 36.666 0 0 1 18.349 78.353 A 29.805 29.805 0 0 1 12.75 76.6 A 23.121 23.121 0 0 1 6.805 72.975 A 20.292 20.292 0 0 1 3.5 69.4 Q 0.1 64.7 0 58.3 Z M 113.8 54.9 L 73.3 54.9 Q 73.8 60.9 77.5 64.3 A 12.795 12.795 0 0 0 85.849 67.684 A 16.604 16.604 0 0 0 86.6 67.7 Q 94.4 67.7 97.7 61 L 112.8 61 Q 110.4 69 103.6 74.15 A 25.141 25.141 0 0 1 92.082 78.915 A 33.694 33.694 0 0 1 86.9 79.3 A 30.891 30.891 0 0 1 78.037 78.065 A 27.022 27.022 0 0 1 72.55 75.75 Q 66.2 72.2 62.65 65.7 Q 59.1 59.2 59.1 50.7 A 35.78 35.78 0 0 1 59.948 42.744 A 28.183 28.183 0 0 1 62.6 35.6 Q 66.1 29.1 72.4 25.6 A 27.733 27.733 0 0 1 82.438 22.377 A 35.017 35.017 0 0 1 86.9 22.1 A 31.503 31.503 0 0 1 95.265 23.176 A 27.018 27.018 0 0 1 101.05 25.5 Q 107.3 28.9 110.75 35.15 A 27.694 27.694 0 0 1 113.957 45.328 A 34.879 34.879 0 0 1 114.2 49.5 A 38.688 38.688 0 0 1 114.102 52.329 A 28.241 28.241 0 0 1 113.8 54.9 Z M 175.5 54.9 L 135 54.9 Q 135.5 60.9 139.2 64.3 A 12.795 12.795 0 0 0 147.549 67.684 A 16.604 16.604 0 0 0 148.3 67.7 Q 156.1 67.7 159.4 61 L 174.5 61 Q 172.1 69 165.3 74.15 A 25.141 25.141 0 0 1 153.782 78.915 A 33.694 33.694 0 0 1 148.6 79.3 A 30.891 30.891 0 0 1 139.737 78.065 A 27.022 27.022 0 0 1 134.25 75.75 Q 127.9 72.2 124.35 65.7 Q 120.8 59.2 120.8 50.7 A 35.78 35.78 0 0 1 121.648 42.744 A 28.183 28.183 0 0 1 124.3 35.6 Q 127.8 29.1 134.1 25.6 A 27.733 27.733 0 0 1 144.138 22.377 A 35.017 35.017 0 0 1 148.6 22.1 A 31.503 31.503 0 0 1 156.965 23.176 A 27.018 27.018 0 0 1 162.75 25.5 Q 169 28.9 172.45 35.15 A 27.694 27.694 0 0 1 175.657 45.328 A 34.879 34.879 0 0 1 175.9 49.5 A 38.688 38.688 0 0 1 175.802 52.329 A 28.241 28.241 0 0 1 175.5 54.9 Z M 394.6 54.9 L 354.1 54.9 Q 354.6 60.9 358.3 64.3 A 12.795 12.795 0 0 0 366.649 67.684 A 16.604 16.604 0 0 0 367.4 67.7 Q 375.2 67.7 378.5 61 L 393.6 61 Q 391.2 69 384.4 74.15 A 25.141 25.141 0 0 1 372.882 78.915 A 33.694 33.694 0 0 1 367.7 79.3 A 30.891 30.891 0 0 1 358.837 78.065 A 27.022 27.022 0 0 1 353.35 75.75 Q 347 72.2 343.45 65.7 Q 339.9 59.2 339.9 50.7 A 35.78 35.78 0 0 1 340.748 42.744 A 28.183 28.183 0 0 1 343.4 35.6 Q 346.9 29.1 353.2 25.6 A 27.733 27.733 0 0 1 363.238 22.377 A 35.017 35.017 0 0 1 367.7 22.1 A 31.503 31.503 0 0 1 376.065 23.176 A 27.018 27.018 0 0 1 381.85 25.5 Q 388.1 28.9 391.55 35.15 A 27.694 27.694 0 0 1 394.757 45.328 A 34.879 34.879 0 0 1 395 49.5 A 38.688 38.688 0 0 1 394.902 52.329 A 28.241 28.241 0 0 1 394.6 54.9 Z M 292.7 23 L 306.7 65.5 L 320.7 23 L 335.6 23 L 315.1 78.4 L 298.1 78.4 L 277.7 23 L 292.7 23 Z M 223.9 8.6 L 223.9 67.3 L 246.9 67.3 L 246.9 78.4 L 209.9 78.4 L 209.9 8.6 L 223.9 8.6 Z M 255.8 23 L 269.8 23 L 269.8 78.4 L 255.8 78.4 L 255.8 23 Z M 73.4 45.5 L 99.7 45.5 A 12.638 12.638 0 0 0 98.957 41.327 A 10.707 10.707 0 0 0 95.8 36.85 A 13.474 13.474 0 0 0 87.931 33.658 A 17.54 17.54 0 0 0 86.5 33.6 A 14.181 14.181 0 0 0 81.988 34.293 A 12.092 12.092 0 0 0 77.75 36.75 A 12.689 12.689 0 0 0 74.169 42.24 A 17.77 17.77 0 0 0 73.4 45.5 Z M 135.1 45.5 L 161.4 45.5 A 12.638 12.638 0 0 0 160.657 41.327 A 10.707 10.707 0 0 0 157.5 36.85 A 13.474 13.474 0 0 0 149.631 33.658 A 17.54 17.54 0 0 0 148.2 33.6 A 14.181 14.181 0 0 0 143.688 34.293 A 12.092 12.092 0 0 0 139.45 36.75 A 12.689 12.689 0 0 0 135.869 42.24 A 17.77 17.77 0 0 0 135.1 45.5 Z M 354.2 45.5 L 380.5 45.5 A 12.638 12.638 0 0 0 379.757 41.327 A 10.707 10.707 0 0 0 376.6 36.85 A 13.474 13.474 0 0 0 368.731 33.658 A 17.54 17.54 0 0 0 367.3 33.6 A 14.181 14.181 0 0 0 362.788 34.293 A 12.092 12.092 0 0 0 358.55 36.75 A 12.689 12.689 0 0 0 354.969 42.24 A 17.77 17.77 0 0 0 354.2 45.5 Z M 259.804 15.918 A 9.568 9.568 0 0 0 262.9 16.4 A 11.082 11.082 0 0 0 263.639 16.376 A 8.367 8.367 0 0 0 269.05 14.05 Q 271.5 11.7 271.5 8.2 A 9.85 9.85 0 0 0 271.498 7.983 A 7.744 7.744 0 0 0 269.05 2.35 A 8.16 8.16 0 0 0 265.996 0.483 A 9.568 9.568 0 0 0 262.9 0 A 11.082 11.082 0 0 0 262.161 0.025 A 8.367 8.367 0 0 0 256.75 2.35 Q 254.3 4.7 254.3 8.2 A 9.85 9.85 0 0 0 254.302 8.418 A 7.744 7.744 0 0 0 256.75 14.05 A 8.16 8.16 0 0 0 259.804 15.918 Z" vector-effect="non-scaling-stroke"/></g></svg>