<svg xmlns="http://www.w3.org/2000/svg" width="192.76" height="123.542" viewBox="0 0 192.76 123.542">
  <g id="ico02" transform="translate(-47.325 -44.137)">
    <g id="Background_Complete" data-name="Background Complete" transform="translate(47.325 53.172)">
      <g id="Group_388" data-name="Group 388" transform="translate(153.467 0)">
        <g id="Group_387" data-name="Group 387" transform="translate(0)">
          <g id="Group_383" data-name="Group 383">
            <g id="Group_382" data-name="Group 382">
              <g id="Group_381" data-name="Group 381">
                <g id="Group_380" data-name="Group 380">
                  <g id="Group_379" data-name="Group 379">
                    <rect id="Rectangle_148" data-name="Rectangle 148" width="31.913" height="29.606" transform="matrix(0.992, -0.126, 0.126, 0.992, 0, 4.018)" fill="#f5f5f5"/>
                  </g>
                </g>
              </g>
            </g>
          </g>
          <g id="Group_386" data-name="Group 386" transform="translate(2.583 2.603)">
            <g id="Group_384" data-name="Group 384" transform="translate(15.388 5.584)">
              <path id="Path_36934" data-name="Path 36934" d="M644.317,103.926a2.2,2.2,0,1,0,2.556,1.9A2.251,2.251,0,0,0,644.317,103.926Z" transform="translate(-642.299 -103.907)" fill="#e0e0e0"/>
            </g>
            <g id="Group_385" data-name="Group 385">
              <path id="Path_36935" data-name="Path 36935" d="M615.81,84.544l-26.75,3.374c.025-.036-.253.312-.135.168v.007l0,.013,0,.026.007.052.013.105.026.209.053.418.106.834q.106.833.211,1.658.21,1.651.416,3.27.413,3.237.807,6.328c.527,4.113,1.025,8,1.484,11.578l.016.127.131-.017,19.417-2.529,5.421-.722,1.42-.2.36-.053a.732.732,0,0,0,.116-.022.921.921,0,0,0-.133.01l-.376.04-1.449.169-5.459.659-5.978.739,13.379-1.7a.647.647,0,0,0,.016.081.521.521,0,0,0-.006-.108c-.009-.085-.02-.192-.034-.33q-.053-.461-.15-1.3c-.139-1.159-.34-2.836-.6-4.964-.531-4.311-1.287-10.45-2.194-17.821l-.015-.124Zm-4.7,14.787-3.7,5.682-8.389-8.751-6.737,15.981-1.416-11.272-.8-6.329q-.2-1.619-.414-3.27l-.21-1.658-.106-.834-.053-.418-.027-.209-.008-.063,26.468-3.379c.951,7.276,1.743,13.338,2.3,17.6.286,2.137.511,3.82.666,4.984q.118.851.183,1.32c.021.142.038.254.051.341l0,.029Z" transform="translate(-588.896 -84.528)" fill="#e0e0e0"/>
            </g>
          </g>
        </g>
      </g>
      <g id="Group_398" data-name="Group 398" transform="translate(0 80.235)">
        <g id="Group_397" data-name="Group 397">
          <g id="Group_393" data-name="Group 393">
            <g id="Group_392" data-name="Group 392">
              <g id="Group_391" data-name="Group 391">
                <g id="Group_390" data-name="Group 390">
                  <g id="Group_389" data-name="Group 389">
                    <rect id="Rectangle_149" data-name="Rectangle 149" width="22.699" height="21.059" transform="translate(3.397 0) rotate(9.283)" fill="#f5f5f5"/>
                  </g>
                </g>
              </g>
            </g>
          </g>
          <g id="Group_396" data-name="Group 396" transform="translate(1.911 1.901)">
            <g id="Group_394" data-name="Group 394" transform="translate(12.386 4.974)">
              <path id="Path_36936" data-name="Path 36936" d="M98.826,377.834a1.568,1.568,0,1,0,1.359,1.81A1.6,1.6,0,0,0,98.826,377.834Z" transform="translate(-96.941 -377.812)" fill="#e0e0e0"/>
            </g>
            <g id="Group_395" data-name="Group 395">
              <path id="Path_36937" data-name="Path 36937" d="M75.84,363.658,56.916,360.55c.024-.019-.236.162-.126.088v.014l0,.019-.006.037-.012.074-.024.148-.048.3-.1.59q-.1.59-.192,1.173l-.377,2.314q-.373,2.291-.729,4.479l-1.329,8.2-.014.09.093.015,13.753,2.2,3.843.6,1.008.154.256.037a.547.547,0,0,0,.084.009.625.625,0,0,0-.092-.02l-.264-.048-1.022-.178-3.857-.654-4.226-.705L73,381.028a.521.521,0,0,0-.005.059.357.357,0,0,0,.018-.075l.043-.232.161-.917.6-3.506,2.107-12.6.015-.088Zm-6.2,9.133-3.673,3.127-3.952-7.664-7.826,9.536c.407-2.471.848-5.147,1.313-7.974l.735-4.478q.188-1.145.379-2.314l.192-1.173.1-.59.048-.3.024-.148.007-.044,18.733,3.047c-.823,5.154-1.508,9.448-1.99,12.469l-.553,3.533q-.092.6-.142.937c-.015.1-.026.181-.035.243l0,.02Z" transform="translate(-53.956 -360.549)" fill="#e0e0e0"/>
            </g>
          </g>
        </g>
      </g>
      <g id="Group_422" data-name="Group 422" transform="translate(1.172 10.209)">
        <g id="Group_400" data-name="Group 400">
          <g id="Group_399" data-name="Group 399">
            <path id="Path_36938" data-name="Path 36938" d="M52.161,111.091s-1.91.774.293,4.83a53.448,53.448,0,0,0,3.709,6.053s.4.945-.4,1.114-2.575-.067-2.908.925c-.345,1.029.421,1.971,1.944,2.776s4.8,2.69,5.091,2.862.588.605.061.808-4.494.721-4.135,2.589,4.97,3.412,5.471,3.591.625.386.592.659-1.383.322-2.506.515-2.39.615-2.092,1.675,3.061,3.233,9.649,3.706l3.067.02,1.6-2.632c3.082-5.842,2.7-9.337,1.958-10.15s-1.771.04-2.528.89-1.513,1.97-1.763,1.854-.36-.331-.246-.851,1.241-5.25-.154-6.543-3.934,1.8-4.384,2.14-.663-.144-.653-.479.141-4.116.264-5.834-.273-2.866-1.328-3.118c-1.018-.243-1.757,1.39-2.323,1.979s-1.158-.247-1.158-.247a53.412,53.412,0,0,0-3.176-6.349c-2.277-4.015-3.98-2.764-3.98-2.764" transform="translate(-51.392 -110.925)" fill="#ebebeb"/>
          </g>
        </g>
        <g id="Group_403" data-name="Group 403" transform="translate(2.736 3.802)">
          <g id="Group_402" data-name="Group 402">
            <g id="Group_401" data-name="Group 401">
              <path id="Path_36939" data-name="Path 36939" d="M76.93,153.322c-1.661-2.955-4.524-8.258-7.006-12.8s-4.731-8.645-6.376-11.608L61.6,125.409l-.53-.954-.136-.249c-.03-.056-.044-.086-.044-.086s.019.027.052.082l.144.245.546.945c.473.821,1.149,2.015,1.979,3.493,1.661,2.955,3.92,7.057,6.4,11.6s5.336,9.847,6.981,12.81" transform="translate(-60.886 -124.119)" fill="#e0e0e0"/>
            </g>
          </g>
        </g>
        <g id="Group_406" data-name="Group 406" transform="translate(3.931 13.517)">
          <g id="Group_405" data-name="Group 405">
            <g id="Group_404" data-name="Group 404">
              <path id="Path_36940" data-name="Path 36940" d="M65.036,157.836a1.006,1.006,0,0,1,.215.054c.137.04.333.1.575.185.483.163,1.144.405,1.869.686l1.852.725.562.216a1.006,1.006,0,0,1,.2.087.992.992,0,0,1-.216-.052c-.137-.041-.333-.1-.574-.188-.481-.168-1.139-.419-1.864-.7l-1.857-.711-.564-.213A.978.978,0,0,1,65.036,157.836Z" transform="translate(-65.036 -157.835)" fill="#e0e0e0"/>
            </g>
          </g>
        </g>
        <g id="Group_409" data-name="Group 409" transform="translate(9.412 9.113)">
          <g id="Group_408" data-name="Group 408">
            <g id="Group_407" data-name="Group 407">
              <path id="Path_36941" data-name="Path 36941" d="M84.059,148.709c-.025-.008.414-1.393.981-3.093s1.047-3.072,1.072-3.064-.414,1.393-.981,3.094S84.084,148.717,84.059,148.709Z" transform="translate(-84.058 -142.552)" fill="#e0e0e0"/>
            </g>
          </g>
        </g>
        <g id="Group_412" data-name="Group 412" transform="translate(12.909 17.561)">
          <g id="Group_411" data-name="Group 411">
            <g id="Group_410" data-name="Group 410">
              <path id="Path_36942" data-name="Path 36942" d="M96.194,176.72a1.025,1.025,0,0,1,.12-.192l.35-.506c.3-.428.7-1.02,1.123-1.69s.787-1.288,1.047-1.738l.307-.533a1.066,1.066,0,0,1,.122-.191,1,1,0,0,1-.09.208c-.064.131-.159.319-.282.548-.245.459-.6,1.086-1.025,1.757s-.839,1.26-1.149,1.678c-.156.209-.284.376-.375.489A1.02,1.02,0,0,1,96.194,176.72Z" transform="translate(-96.193 -171.87)" fill="#e0e0e0"/>
            </g>
          </g>
        </g>
        <g id="Group_415" data-name="Group 415" transform="translate(7.602 21.913)">
          <g id="Group_414" data-name="Group 414">
            <g id="Group_413" data-name="Group 413">
              <path id="Path_36943" data-name="Path 36943" d="M77.776,186.98a.917.917,0,0,1,.209,0l.569.03c.479.03,1.141.077,1.872.136s1.392.117,1.87.164l.566.061a.105.105,0,1,1,0,.037l-.568-.03c-.479-.03-1.141-.077-1.872-.136s-1.392-.117-1.87-.164l-.566-.061A.891.891,0,0,1,77.776,186.98Z" transform="translate(-77.776 -186.975)" fill="#e0e0e0"/>
            </g>
          </g>
        </g>
        <g id="Group_418" data-name="Group 418" transform="translate(9.888 28.611)">
          <g id="Group_417" data-name="Group 417">
            <g id="Group_416" data-name="Group 416">
              <path id="Path_36944" data-name="Path 36944" d="M85.708,210.224a1.427,1.427,0,0,1,.268,0l.728.036c.615.035,1.464.089,2.4.155s1.786.131,2.4.183l.726.066a1.489,1.489,0,0,1,.265.037,1.411,1.411,0,0,1-.268,0l-.728-.036c-.615-.035-1.464-.089-2.4-.155s-1.785-.131-2.4-.183l-.726-.066A1.5,1.5,0,0,1,85.708,210.224Z" transform="translate(-85.708 -210.219)" fill="#e0e0e0"/>
            </g>
          </g>
        </g>
        <g id="Group_421" data-name="Group 421" transform="translate(16.517 22.777)">
          <g id="Group_420" data-name="Group 420">
            <g id="Group_419" data-name="Group 419">
              <path id="Path_36945" data-name="Path 36945" d="M108.713,196.232a1.664,1.664,0,0,1,.145-.248l.421-.658c.355-.556.842-1.325,1.355-2.19s.96-1.658,1.279-2.235l.378-.683a1.668,1.668,0,0,1,.148-.246,1.672,1.672,0,0,1-.115.263c-.08.167-.2.405-.352.7-.3.586-.741,1.387-1.256,2.252s-1.011,1.631-1.381,2.178c-.186.273-.338.492-.447.641A1.647,1.647,0,0,1,108.713,196.232Z" transform="translate(-108.713 -189.973)" fill="#e0e0e0"/>
            </g>
          </g>
        </g>
      </g>
      <g id="Group_474" data-name="Group 474" transform="translate(143.329 37.619)">
        <g id="Group_424" data-name="Group 424">
          <g id="Group_423" data-name="Group 423">
            <rect id="Rectangle_150" data-name="Rectangle 150" width="49.431" height="30.637" rx="3" fill="#e0e0e0"/>
          </g>
        </g>
        <g id="Group_429" data-name="Group 429" transform="translate(19.39 10.41)">
          <g id="Group_426" data-name="Group 426" transform="translate(0 0)">
            <g id="Group_425" data-name="Group 425">
              <circle id="Ellipse_33" data-name="Ellipse 33" cx="3.765" cy="3.765" r="3.765" transform="translate(0 5.325) rotate(-45)" fill="#ebebeb"/>
            </g>
          </g>
          <g id="Group_428" data-name="Group 428" transform="translate(4.418 4.063)">
            <g id="Group_427" data-name="Group 427">
              <path id="Path_36946" data-name="Path 36946" d="M627.373,258.643v-2.222a.141.141,0,0,1,.211-.123l1.986,1.119a.141.141,0,0,1,0,.247l-1.986,1.1A.141.141,0,0,1,627.373,258.643Z" transform="translate(-627.373 -256.28)" fill="#fff"/>
            </g>
          </g>
        </g>
        <g id="Group_434" data-name="Group 434" transform="translate(2.434 26.684)">
          <g id="Group_430" data-name="Group 430">
            <path id="Path_36947" data-name="Path 36947" d="M553.586,299.092v.08h-.372v-.063l.2-.19c.049-.047.058-.077.058-.1,0-.046-.032-.073-.094-.073a.142.142,0,0,0-.118.052l-.066-.05a.233.233,0,0,1,.192-.084c.11,0,.18.056.18.145a.2.2,0,0,1-.084.159l-.135.129Z" transform="translate(-553.194 -298.659)" fill="#fff"/>
          </g>
          <g id="Group_431" data-name="Group 431" transform="translate(0.442 0.122)">
            <path id="Path_36948" data-name="Path 36948" d="M554.728,299.144a.059.059,0,1,1,.059.06A.059.059,0,0,1,554.728,299.144Zm0,.275a.059.059,0,1,1,.118,0,.059.059,0,1,1-.118,0Z" transform="translate(-554.728 -299.084)" fill="#fff"/>
          </g>
          <g id="Group_432" data-name="Group 432" transform="translate(0.594 0.007)">
            <path id="Path_36949" data-name="Path 36949" d="M555.458,298.684v.505h-.094v-.426h-.107v-.079Z" transform="translate(-555.257 -298.684)" fill="#fff"/>
          </g>
          <g id="Group_433" data-name="Group 433" transform="translate(0.887 0.007)">
            <path id="Path_36950" data-name="Path 36950" d="M556.732,299.074h-.089v.115h-.091v-.115h-.277v-.065l.249-.325h.1l-.234.311h.165v-.1h.088v.1h.089Z" transform="translate(-556.274 -298.684)" fill="#fff"/>
          </g>
        </g>
        <g id="Group_436" data-name="Group 436" transform="translate(4.603 26.866)">
          <g id="Group_435" data-name="Group 435">
            <rect id="Rectangle_151" data-name="Rectangle 151" width="38.283" height="0.203" fill="#fff"/>
          </g>
        </g>
        <g id="Group_438" data-name="Group 438" transform="translate(4.575 26.655)">
          <g id="Group_437" data-name="Group 437">
            <rect id="Rectangle_152" data-name="Rectangle 152" width="11.964" height="0.541" fill="#ebebeb"/>
          </g>
        </g>
        <g id="Group_440" data-name="Group 440" transform="translate(15.759 26.385)">
          <g id="Group_439" data-name="Group 439">
            <path id="Path_36951" data-name="Path 36951" d="M600.6,298.2a.582.582,0,1,1-.582-.582A.582.582,0,0,1,600.6,298.2Z" transform="translate(-599.439 -297.621)" fill="#ebebeb"/>
          </g>
        </g>
        <g id="Group_445" data-name="Group 445" transform="translate(43.448 26.606)">
          <g id="Group_441" data-name="Group 441">
            <path id="Path_36952" data-name="Path 36952" d="M695.935,298.744a.168.168,0,0,1-.185.164c-.138,0-.219-.089-.219-.251a.239.239,0,0,1,.247-.268.252.252,0,0,1,.133.033l-.035.071a.171.171,0,0,0-.1-.025c-.1,0-.155.059-.155.174h0a.173.173,0,0,1,.135-.052A.158.158,0,0,1,695.935,298.744Zm-.091,0c0-.053-.039-.086-.1-.086a.092.092,0,0,0-.1.086c0,.048.037.085.1.085A.087.087,0,0,0,695.844,298.748Z" transform="translate(-695.532 -298.388)" fill="#fff"/>
          </g>
          <g id="Group_442" data-name="Group 442" transform="translate(0.448 0.122)">
            <path id="Path_36953" data-name="Path 36953" d="M697.088,298.873a.059.059,0,1,1,.118,0,.059.059,0,1,1-.118,0Zm0,.275a.059.059,0,1,1,.118,0,.059.059,0,1,1-.118,0Z" transform="translate(-697.088 -298.813)" fill="#fff"/>
          </g>
          <g id="Group_443" data-name="Group 443" transform="translate(0.627)">
            <path id="Path_36954" data-name="Path 36954" d="M697.708,298.648c0-.166.091-.26.211-.26s.211.094.211.26-.091.26-.211.26S697.708,298.814,697.708,298.648Zm.328,0c0-.122-.048-.178-.117-.178s-.116.056-.116.178.048.178.116.178S698.036,298.77,698.036,298.648Z" transform="translate(-697.708 -298.388)" fill="#fff"/>
          </g>
          <g id="Group_444" data-name="Group 444" transform="translate(1.112)">
            <path id="Path_36955" data-name="Path 36955" d="M699.39,298.648c0-.166.091-.26.211-.26s.211.094.211.26-.091.26-.211.26S699.39,298.814,699.39,298.648Zm.328,0c0-.122-.048-.178-.117-.178s-.116.056-.116.178.047.178.116.178S699.718,298.77,699.718,298.648Z" transform="translate(-699.39 -298.388)" fill="#fff"/>
          </g>
        </g>
        <g id="Group_447" data-name="Group 447" transform="translate(45.608 26.317)">
          <g id="Group_446" data-name="Group 446">
            <path id="Path_36956" data-name="Path 36956" d="M703.23,297.9h-.2v-.517h.516v.2h-.313Z" transform="translate(-703.028 -297.386)" fill="#fff"/>
          </g>
        </g>
        <g id="Group_449" data-name="Group 449" transform="translate(45.607 26.989)">
          <g id="Group_448" data-name="Group 448">
            <path id="Path_36957" data-name="Path 36957" d="M703.543,300.234h-.517v-.516h.2v.314h.315Z" transform="translate(-703.026 -299.718)" fill="#fff"/>
          </g>
        </g>
        <g id="Group_451" data-name="Group 451" transform="translate(46.424 26.988)">
          <g id="Group_450" data-name="Group 450">
            <path id="Path_36958" data-name="Path 36958" d="M706.376,300.232h-.516v-.2h.313v-.315h.2Z" transform="translate(-705.86 -299.714)" fill="#fff"/>
          </g>
        </g>
        <g id="Group_453" data-name="Group 453" transform="translate(46.423 26.317)">
          <g id="Group_452" data-name="Group 452">
            <path id="Path_36959" data-name="Path 36959" d="M706.375,297.9h-.2v-.313h-.315v-.2h.517Z" transform="translate(-705.858 -297.386)" fill="#fff"/>
          </g>
        </g>
        <g id="Group_456" data-name="Group 456" transform="translate(40.348 2.92)">
          <g id="Group_455" data-name="Group 455">
            <g id="Group_454" data-name="Group 454">
              <path id="Path_36960" data-name="Path 36960" d="M684.838,216.244a8.053,8.053,0,0,1,1.041-.057h.056v.058c0,.395.009.841.014,1.323l0,.171-.122-.121-.139-.138-.353-.355.095,0-.554.487-.1.092,0-.138c.006-.409.02-.748.031-.978a1.556,1.556,0,0,1,.031-.345,2.667,2.667,0,0,1,.03.384c.012.234.025.556.031.938l-.1-.046.544-.5.048-.044.047.047.355.353.139.139-.12.05c0-.482.01-.928.014-1.323l.056.056A10.246,10.246,0,0,1,684.838,216.244Z" transform="translate(-684.774 -216.186)" fill="#fff"/>
            </g>
          </g>
        </g>
        <g id="Group_459" data-name="Group 459" transform="translate(42.569 3.065)">
          <g id="Group_458" data-name="Group 458">
            <g id="Group_457" data-name="Group 457">
              <path id="Path_36961" data-name="Path 36961" d="M694.154,216.768a3.7,3.7,0,0,1-.252.322c-.171.212-.427.528-.739.881l-.116.131v-.176c0-.207,0-.427,0-.656v-.064l.022.051-.461-.449-.12-.117.167,0c.458.007.851.03,1.113.046a3.438,3.438,0,0,1,.392.03c-.014.006-.185.012-.455.024s-.631.032-1.051.033l.046-.115.466.444.022.02v.095c0,.228,0,.449,0,.656l-.117-.045c.292-.32.557-.582.755-.781S694.14,216.774,694.154,216.768Z" transform="translate(-692.482 -216.69)" fill="#fff"/>
            </g>
          </g>
        </g>
        <g id="Group_462" data-name="Group 462" transform="translate(43.199 3.134)">
          <g id="Group_461" data-name="Group 461">
            <g id="Group_460" data-name="Group 460">
              <path id="Path_36962" data-name="Path 36962" d="M695.71,216.938c.015.036-.206.163-.493.284s-.533.19-.548.154.206-.163.493-.284S695.695,216.9,695.71,216.938Z" transform="translate(-694.667 -216.928)" fill="#fff"/>
            </g>
          </g>
        </g>
        <g id="Group_465" data-name="Group 465" transform="translate(45.31 2.965)">
          <g id="Group_464" data-name="Group 464">
            <g id="Group_463" data-name="Group 463">
              <path id="Path_36963" data-name="Path 36963" d="M702.791,216.355c0-.008.066-.024.186,0a.735.735,0,0,1,.439.265.783.783,0,0,1,.128.749.8.8,0,0,1-1.507,0,.783.783,0,0,1,.128-.75.735.735,0,0,1,.439-.264c.12-.02.187,0,.187,0s-.066.015-.173.05a.736.736,0,0,0-.373.272.691.691,0,0,0-.085.645.674.674,0,0,0,1.263,0,.691.691,0,0,0-.085-.645.735.735,0,0,0-.373-.272C702.856,216.37,702.79,216.367,702.791,216.355Z" transform="translate(-701.993 -216.342)" fill="#fff"/>
            </g>
          </g>
        </g>
        <g id="Group_468" data-name="Group 468" transform="translate(45.974 3.263)">
          <g id="Group_467" data-name="Group 467">
            <g id="Group_466" data-name="Group 466">
              <path id="Path_36964" data-name="Path 36964" d="M704.682,218.142c-.027.027-.19-.091-.364-.264l-.021-.02v-.033c0-.248.032-.449.07-.449s.071.2.071.449v0l-.021-.05C704.592,217.952,704.71,218.115,704.682,218.142Z" transform="translate(-704.298 -217.375)" fill="#fff"/>
            </g>
          </g>
        </g>
        <g id="Group_471" data-name="Group 471" transform="translate(5.511 3.911)">
          <g id="Group_470" data-name="Group 470">
            <g id="Group_469" data-name="Group 469">
              <path id="Path_36965" data-name="Path 36965" d="M586.563,219.694c0,.039-5.08.07-11.346.07s-11.346-.031-11.346-.07,5.079-.07,11.346-.07S586.563,219.655,586.563,219.694Z" transform="translate(-563.871 -219.624)" fill="#fff"/>
            </g>
          </g>
        </g>
        <g id="Group_473" data-name="Group 473" transform="translate(2.65 3.086)">
          <g id="Group_472" data-name="Group 472">
            <circle id="Ellipse_34" data-name="Ellipse 34" cx="0.895" cy="0.895" r="0.895" fill="#fff"/>
          </g>
        </g>
      </g>
    </g>
    <g id="Web" transform="translate(55.465 44.137)">
      <g id="Group_518" data-name="Group 518" transform="translate(10.332 0)">
        <g id="Group_497" data-name="Group 497">
          <g id="Group_475" data-name="Group 475" transform="translate(0.246 0.074)">
            <rect id="Rectangle_153" data-name="Rectangle 153" width="145.738" height="104.908" fill="#fff"/>
          </g>
          <g id="Group_476" data-name="Group 476" transform="translate(0.066 0.074)">
            <rect id="Rectangle_154" data-name="Rectangle 154" width="145.738" height="7.754" fill="#e0e0e0"/>
          </g>
          <g id="Group_477" data-name="Group 477" transform="translate(3.323 3.081)">
            <path id="Path_36966" data-name="Path 36966" d="M124.868,55.836a.952.952,0,1,1-.951-1.007A.98.98,0,0,1,124.868,55.836Z" transform="translate(-122.966 -54.829)" fill="#263238"/>
          </g>
          <g id="Group_478" data-name="Group 478" transform="translate(6.861 3.081)">
            <path id="Path_36967" data-name="Path 36967" d="M137.146,55.836a.953.953,0,1,1-.951-1.007A.98.98,0,0,1,137.146,55.836Z" transform="translate(-135.244 -54.829)" fill="#263238"/>
          </g>
          <g id="Group_479" data-name="Group 479" transform="translate(10.399 3.081)">
            <path id="Path_36968" data-name="Path 36968" d="M149.425,55.836a.953.953,0,1,1-.951-1.007A.98.98,0,0,1,149.425,55.836Z" transform="translate(-147.523 -54.829)" fill="#263238"/>
          </g>
          <g id="Group_494" data-name="Group 494" transform="translate(48.683 13.682)">
            <g id="Group_482" data-name="Group 482" transform="translate(0 2.394)">
              <g id="Group_481" data-name="Group 481">
                <g id="Group_480" data-name="Group 480">
                  <path id="Path_36969" data-name="Path 36969" d="M294.606,100.03c0,.055-3.183.1-7.108.1s-7.109-.045-7.109-.1,3.182-.1,7.109-.1S294.606,99.975,294.606,100.03Z" transform="translate(-280.389 -99.93)" fill="#263238"/>
                </g>
              </g>
            </g>
            <g id="Group_485" data-name="Group 485" transform="translate(18.911 2.394)">
              <g id="Group_484" data-name="Group 484">
                <g id="Group_483" data-name="Group 483">
                  <path id="Path_36970" data-name="Path 36970" d="M360.237,100.03c0,.055-3.183.1-7.108.1s-7.109-.045-7.109-.1,3.182-.1,7.109-.1S360.237,99.975,360.237,100.03Z" transform="translate(-346.019 -99.93)" fill="#263238"/>
                </g>
              </g>
            </g>
            <g id="Group_488" data-name="Group 488" transform="translate(37.822 2.394)">
              <g id="Group_487" data-name="Group 487">
                <g id="Group_486" data-name="Group 486">
                  <path id="Path_36971" data-name="Path 36971" d="M425.867,100.03c0,.055-3.183.1-7.108.1s-7.109-.045-7.109-.1,3.182-.1,7.109-.1S425.867,99.975,425.867,100.03Z" transform="translate(-411.65 -99.93)" fill="#263238"/>
                </g>
              </g>
            </g>
            <g id="Group_491" data-name="Group 491" transform="translate(56.9 2.394)">
              <g id="Group_490" data-name="Group 490">
                <g id="Group_489" data-name="Group 489">
                  <path id="Path_36972" data-name="Path 36972" d="M492.079,100.03c0,.055-3.183.1-7.108.1s-7.109-.045-7.109-.1,3.182-.1,7.109-.1S492.079,99.975,492.079,100.03Z" transform="translate(-477.862 -99.93)" fill="#263238"/>
                </g>
              </g>
            </g>
            <g id="Group_493" data-name="Group 493" transform="translate(75.302)">
              <g id="Group_492" data-name="Group 492">
                <path id="Path_36973" data-name="Path 36973" d="M554.113,96.509c0-.012.12-.006.339-.06a1.573,1.573,0,0,0,.818-.531,1.64,1.64,0,0,0,.325-.648,3.429,3.429,0,0,0,.05-.885c-.039-.631.141-1.452-.4-2.052a1.484,1.484,0,0,0-1.012-.528c-.409-.011-.855,0-1.306,0l-2.894.009-6.631.008a1.494,1.494,0,0,0-1.328.862,1.732,1.732,0,0,0-.164.829q0,.448,0,.889a3.364,3.364,0,0,0,.052.843,1.608,1.608,0,0,0,.372.694,1.519,1.519,0,0,0,.631.409,2.284,2.284,0,0,0,.741.071l5.416.021,3.651.032.993.019.258.01a.045.045,0,1,1,0,.02l-.258.01-.993.019-3.651.032-5.416.021a2.433,2.433,0,0,1-.793-.076,1.694,1.694,0,0,1-.707-.455,1.8,1.8,0,0,1-.42-.777,1.918,1.918,0,0,1-.06-.454q0-.219,0-.439,0-.441,0-.889a1.939,1.939,0,0,1,.184-.919,1.68,1.68,0,0,1,1.5-.971l6.631.008,2.894.009c.456,0,.885,0,1.317.013a1.619,1.619,0,0,1,1.1.588,1.788,1.788,0,0,1,.409,1.1q0,.552,0,1.041a3.48,3.48,0,0,1-.069.911,1.7,1.7,0,0,1-.357.674,1.554,1.554,0,0,1-.864.519A1.068,1.068,0,0,1,554.113,96.509Z" transform="translate(-541.724 -91.621)" fill="#263238"/>
              </g>
            </g>
          </g>
          <g id="Group_495" data-name="Group 495" transform="translate(11.299 43.614)">
            <rect id="Rectangle_155" data-name="Rectangle 155" width="44.137" height="9.052" rx="4.526" transform="translate(0 0)" fill="#e0e0e0"/>
          </g>
          <g id="Group_496" data-name="Group 496">
            <path id="Path_36974" data-name="Path 36974" d="M111.5,44.211l145.739-.074h.074v.074c0,31.655,0,67.31.007,104.9v.094h-.082L111.5,149.185h-.067v-.067c.04-63.672.066-104.361.066-104.908,0,.546.026,41.236.067,104.908l-.066-.066,145.738-.015-.082.082v-.012c0-37.586.005-73.241.008-104.9l.074.074Z" transform="translate(-111.434 -44.137)" fill="#263238"/>
          </g>
        </g>
        <g id="Group_504" data-name="Group 504" transform="translate(81.063 32.636)">
          <g id="Group_499" data-name="Group 499">
            <g id="Group_498" data-name="Group 498">
              <path id="Path_36975" data-name="Path 36975" d="M445.076,187.175s0-.183-.006-.534,0-.872-.006-1.552c0-1.363-.008-3.366-.014-5.94-.007-5.142-.018-12.56-.031-21.675l.058.058-52.233.017h0l.075-.075c0,10.507,0,20.552,0,29.7l-.07-.07,37.575.034,10.79.019,2.875.009.743,0c.167,0,.255,0,.255,0s-.082,0-.246,0l-.734,0-2.861.009-10.774.019-37.621.034h-.07v-.07c0-9.149,0-19.193,0-29.7V157.4h.079l52.233.017h.058v.058c-.013,9.129-.023,16.559-.031,21.71-.006,2.568-.011,4.567-.014,5.927,0,.675,0,1.192-.006,1.542S445.076,187.175,445.076,187.175Z" transform="translate(-392.764 -157.399)" fill="#ff725e"/>
            </g>
          </g>
          <g id="Group_501" data-name="Group 501" transform="translate(0.326 0.036)">
            <g id="Group_500" data-name="Group 500">
              <path id="Path_36976" data-name="Path 36976" d="M444.751,157.525s-.041.031-.125.086l-.375.238-1.449.9c-1.259.783-3.089,1.9-5.357,3.279-4.535,2.75-10.834,6.49-17.858,10.509s-13.444,7.555-18.11,10.076c-2.333,1.26-4.225,2.272-5.538,2.962l-1.512.793-.4.2c-.089.045-.137.065-.137.065s.043-.029.13-.078l.388-.216,1.5-.818,5.515-3c4.652-2.545,11.061-6.094,18.086-10.113s13.33-7.743,17.878-10.469l5.381-3.238,1.464-.88.383-.226C444.7,157.547,444.751,157.525,444.751,157.525Z" transform="translate(-393.896 -157.525)" fill="#ff725e"/>
            </g>
          </g>
          <g id="Group_503" data-name="Group 503" transform="translate(0.592 0.331)">
            <g id="Group_502" data-name="Group 502">
              <path id="Path_36977" data-name="Path 36977" d="M445.936,187.992c-.021.036-11.481-6.527-25.595-14.656s-25.543-14.752-25.522-14.788,11.479,6.526,25.6,14.658S445.957,187.956,445.936,187.992Z" transform="translate(-394.819 -158.548)" fill="#ff725e"/>
            </g>
          </g>
        </g>
        <g id="Group_516" data-name="Group 516" transform="translate(75.486 69.978)">
          <g id="Group_513" data-name="Group 513" transform="translate(5.836 7.097)">
            <g id="Group_506" data-name="Group 506">
              <g id="Group_505" data-name="Group 505">
                <path id="Path_36978" data-name="Path 36978" d="M444.651,311.73c0,.058-11.415.1-25.493.1s-25.5-.047-25.5-.1,11.413-.1,25.5-.1S444.651,311.672,444.651,311.73Z" transform="translate(-393.662 -311.625)" fill="#263238"/>
              </g>
            </g>
            <g id="Group_508" data-name="Group 508" transform="translate(0 3.091)">
              <g id="Group_507" data-name="Group 507">
                <path id="Path_36979" data-name="Path 36979" d="M444.651,322.458c0,.058-11.415.1-25.493.1s-25.5-.047-25.5-.1,11.413-.1,25.5-.1S444.651,322.4,444.651,322.458Z" transform="translate(-393.662 -322.353)" fill="#263238"/>
              </g>
            </g>
            <g id="Group_510" data-name="Group 510" transform="translate(0.391 10.794)">
              <g id="Group_509" data-name="Group 509">
                <path id="Path_36980" data-name="Path 36980" d="M417.37,349.183c0,.053-5,.1-11.176.1s-11.176-.043-11.176-.1,5-.1,11.176-.1S417.37,349.13,417.37,349.183Z" transform="translate(-395.018 -349.087)" fill="#263238"/>
              </g>
            </g>
            <g id="Group_512" data-name="Group 512" transform="translate(0.391 7.068)">
              <g id="Group_511" data-name="Group 511">
                <path id="Path_36981" data-name="Path 36981" d="M439.155,336.251c0,.053-9.881.1-22.067.1s-22.069-.043-22.069-.1,9.879-.1,22.069-.1S439.155,336.2,439.155,336.251Z" transform="translate(-395.018 -336.154)" fill="#263238"/>
              </g>
            </g>
          </g>
          <g id="Group_515" data-name="Group 515">
            <g id="Group_514" data-name="Group 514">
              <path id="Path_36982" data-name="Path 36982" d="M436.949,310.7s0-.143-.006-.417,0-.682-.005-1.215c0-1.068-.007-2.643-.013-4.677-.006-4.065-.016-9.966-.028-17.319l.051.051-63.461.024h0l.075-.075c0,8.247,0,16.226,0,23.628l-.072-.072,45.471.034,13.223.02,3.541.009.917,0c.206,0,.314,0,.314,0s-.1,0-.305,0l-.908,0-3.526.009-13.206.02-45.52.034h-.072V310.7c0-7.4,0-15.381,0-23.628V287h.079l63.461.024H437v.051c-.012,7.366-.021,13.278-.028,17.35l-.013,4.666c0,.529,0,.932-.005,1.206S436.949,310.7,436.949,310.7Z" transform="translate(-373.409 -286.996)" fill="#263238"/>
            </g>
          </g>
        </g>
        <g id="Group_517" data-name="Group 517" transform="translate(10.383 13.346)">
          <ellipse id="Ellipse_35" data-name="Ellipse 35" cx="3.229" cy="3.085" rx="3.229" ry="3.085" fill="#e62446"/>
        </g>
      </g>
      <g id="Group_524" data-name="Group 524" transform="translate(0 53.742)">
        <g id="Group_519" data-name="Group 519" transform="translate(0 0.069)">
          <rect id="Rectangle_156" data-name="Rectangle 156" width="22.823" height="15.878" fill="#455a64"/>
        </g>
        <g id="Group_521" data-name="Group 521" transform="translate(0.036 0.069)">
          <g id="Group_520" data-name="Group 520">
            <path id="Path_36983" data-name="Path 36983" d="M98.489,230.888c.024.034-5.058,3.647-11.35,8.07S75.727,246.94,75.7,246.906s5.057-3.647,11.351-8.071S98.466,230.854,98.489,230.888Z" transform="translate(-75.703 -230.888)" fill="#263238"/>
          </g>
        </g>
        <g id="Group_523" data-name="Group 523" transform="translate(0.371)">
          <g id="Group_522" data-name="Group 522">
            <path id="Path_36984" data-name="Path 36984" d="M99.317,246.6a.255.255,0,0,1-.063-.035l-.174-.115-.662-.453L96,244.3l-7.95-5.62-7.926-5.657L77.73,231.3l-.646-.476-.166-.127a.036.036,0,1,1,.009-.012l.174.115.662.453,2.42,1.689,7.951,5.62,7.924,5.655,2.392,1.729.646.476.166.127A.264.264,0,0,1,99.317,246.6Z" transform="translate(-76.865 -230.648)" fill="#263238"/>
          </g>
        </g>
      </g>
    </g>
    <g id="HTML" transform="translate(74.308 133.001)">
      <g id="Group_582" data-name="Group 582" transform="translate(0)">
        <g id="Group_528" data-name="Group 528">
          <g id="Group_525" data-name="Group 525" transform="translate(0.075 0.075)">
            <rect id="Rectangle_157" data-name="Rectangle 157" width="60.762" height="34.528" fill="#fafafa"/>
          </g>
          <g id="Group_527" data-name="Group 527">
            <g id="Group_526" data-name="Group 526">
              <path id="Path_36985" data-name="Path 36985" d="M201.809,387.143s0-.212-.006-.619,0-1.013-.006-1.8c0-1.583-.008-3.912-.015-6.9-.007-5.978-.018-14.6-.031-25.2l.058.058-60.758.017h0l.075-.075c0,12.215,0,23.892,0,34.528l-.07-.07,43.711.034,12.549.019,3.343.009.863,0c.194,0,.3,0,.3,0s-.1,0-.287,0l-.855,0-3.329.009-12.533.019-43.757.034h-.07v-.07c0-10.636,0-22.313,0-34.528v-.075h.08l60.758.017h.058v.058c-.013,10.612-.023,19.249-.031,25.236-.006,2.986-.011,5.31-.015,6.891,0,.786,0,1.387-.006,1.793S201.809,387.143,201.809,387.143Z" transform="translate(-140.972 -352.54)" fill="#263238"/>
            </g>
          </g>
        </g>
        <g id="Group_541" data-name="Group 541" transform="translate(6.286 5.63)">
          <g id="Group_530" data-name="Group 530" transform="translate(0 0.003)">
            <g id="Group_529" data-name="Group 529">
              <path id="Path_36986" data-name="Path 36986" d="M181.229,372.164c0,.041-4.129.075-9.221.075s-9.221-.034-9.221-.075,4.128-.075,9.221-.075S181.229,372.123,181.229,372.164Z" transform="translate(-162.787 -372.089)" fill="#ebebeb"/>
            </g>
          </g>
          <g id="Group_532" data-name="Group 532" transform="translate(9.653 3.312)">
            <g id="Group_531" data-name="Group 531">
              <path id="Path_36987" data-name="Path 36987" d="M214.728,383.649c0,.041-4.129.075-9.22.075s-9.221-.034-9.221-.075,4.128-.075,9.221-.075S214.728,383.608,214.728,383.649Z" transform="translate(-196.286 -383.574)" fill="#ebebeb"/>
            </g>
          </g>
          <g id="Group_534" data-name="Group 534" transform="translate(29.738 0.003)">
            <g id="Group_533" data-name="Group 533">
              <path id="Path_36988" data-name="Path 36988" d="M284.434,372.164c0,.041-4.129.075-9.221.075s-9.221-.034-9.221-.075,4.128-.075,9.221-.075S284.434,372.123,284.434,372.164Z" transform="translate(-265.992 -372.089)" fill="#ebebeb"/>
            </g>
          </g>
          <g id="Group_536" data-name="Group 536" transform="translate(21.298)">
            <g id="Group_535" data-name="Group 535">
              <path id="Path_36989" data-name="Path 36989" d="M241.68,372.155a41.25,41.25,0,0,1-4.979,0,41.418,41.418,0,0,1,4.979,0Z" transform="translate(-236.701 -372.08)" fill="#ebebeb"/>
            </g>
          </g>
          <g id="Group_538" data-name="Group 538" transform="translate(0.541 3.312)">
            <g id="Group_537" data-name="Group 537">
              <path id="Path_36990" data-name="Path 36990" d="M169.643,383.649a41.25,41.25,0,0,1-4.979,0,41.4,41.4,0,0,1,4.979,0Z" transform="translate(-164.664 -383.574)" fill="#ebebeb"/>
            </g>
          </g>
          <g id="Group_540" data-name="Group 540" transform="translate(30.48 3.172)">
            <g id="Group_539" data-name="Group 539">
              <path id="Path_36991" data-name="Path 36991" d="M273.359,383.164a38.347,38.347,0,0,1-4.792,0,38.363,38.363,0,0,1,4.792,0Z" transform="translate(-268.567 -383.089)" fill="#ebebeb"/>
            </g>
          </g>
        </g>
        <g id="Group_554" data-name="Group 554" transform="translate(6.286 13.208)">
          <g id="Group_543" data-name="Group 543" transform="translate(0 0.003)">
            <g id="Group_542" data-name="Group 542">
              <path id="Path_36992" data-name="Path 36992" d="M181.229,398.463c0,.042-4.129.075-9.221.075s-9.221-.033-9.221-.075,4.128-.075,9.221-.075S181.229,398.421,181.229,398.463Z" transform="translate(-162.787 -398.388)" fill="#ebebeb"/>
            </g>
          </g>
          <g id="Group_545" data-name="Group 545" transform="translate(9.653 3.312)">
            <g id="Group_544" data-name="Group 544">
              <path id="Path_36993" data-name="Path 36993" d="M214.728,409.947c0,.042-4.129.075-9.22.075s-9.221-.033-9.221-.075,4.128-.075,9.221-.075S214.728,409.906,214.728,409.947Z" transform="translate(-196.286 -409.872)" fill="#ebebeb"/>
            </g>
          </g>
          <g id="Group_547" data-name="Group 547" transform="translate(29.738 0.003)">
            <g id="Group_546" data-name="Group 546">
              <path id="Path_36994" data-name="Path 36994" d="M284.434,398.463c0,.042-4.129.075-9.221.075s-9.221-.033-9.221-.075,4.128-.075,9.221-.075S284.434,398.421,284.434,398.463Z" transform="translate(-265.992 -398.388)" fill="#ebebeb"/>
            </g>
          </g>
          <g id="Group_549" data-name="Group 549" transform="translate(21.298)">
            <g id="Group_548" data-name="Group 548">
              <path id="Path_36995" data-name="Path 36995" d="M241.68,398.454a41.384,41.384,0,0,1-4.979,0,41.4,41.4,0,0,1,4.979,0Z" transform="translate(-236.701 -398.379)" fill="#ebebeb"/>
            </g>
          </g>
          <g id="Group_551" data-name="Group 551" transform="translate(0.541 3.312)">
            <g id="Group_550" data-name="Group 550">
              <path id="Path_36996" data-name="Path 36996" d="M169.643,409.947a41.384,41.384,0,0,1-4.979,0,41.25,41.25,0,0,1,4.979,0Z" transform="translate(-164.664 -409.872)" fill="#ebebeb"/>
            </g>
          </g>
          <g id="Group_553" data-name="Group 553" transform="translate(30.48 3.172)">
            <g id="Group_552" data-name="Group 552">
              <path id="Path_36997" data-name="Path 36997" d="M273.359,409.462a38.363,38.363,0,0,1-4.792,0,38.207,38.207,0,0,1,4.792,0Z" transform="translate(-268.567 -409.387)" fill="#ebebeb"/>
            </g>
          </g>
        </g>
        <g id="Group_567" data-name="Group 567" transform="translate(6.457 26.346)">
          <g id="Group_556" data-name="Group 556" transform="translate(0 0.003)">
            <g id="Group_555" data-name="Group 555">
              <path id="Path_36998" data-name="Path 36998" d="M181.824,444.059c0,.042-4.129.075-9.221.075s-9.221-.034-9.221-.075,4.128-.075,9.221-.075S181.824,444.018,181.824,444.059Z" transform="translate(-163.382 -443.984)" fill="#ebebeb"/>
            </g>
          </g>
          <g id="Group_558" data-name="Group 558" transform="translate(9.653 3.312)">
            <g id="Group_557" data-name="Group 557">
              <path id="Path_36999" data-name="Path 36999" d="M215.323,455.544c0,.042-4.129.075-9.221.075s-9.221-.034-9.221-.075,4.128-.075,9.221-.075S215.323,455.5,215.323,455.544Z" transform="translate(-196.881 -455.469)" fill="#ebebeb"/>
            </g>
          </g>
          <g id="Group_560" data-name="Group 560" transform="translate(29.738 0.003)">
            <g id="Group_559" data-name="Group 559">
              <path id="Path_37000" data-name="Path 37000" d="M285.029,444.059c0,.042-4.129.075-9.221.075s-9.221-.034-9.221-.075,4.128-.075,9.221-.075S285.029,444.018,285.029,444.059Z" transform="translate(-266.587 -443.984)" fill="#ebebeb"/>
            </g>
          </g>
          <g id="Group_562" data-name="Group 562" transform="translate(21.298)">
            <g id="Group_561" data-name="Group 561">
              <path id="Path_37001" data-name="Path 37001" d="M242.275,444.05a41.249,41.249,0,0,1-4.979,0,41.383,41.383,0,0,1,4.979,0Z" transform="translate(-237.296 -443.975)" fill="#ebebeb"/>
            </g>
          </g>
          <g id="Group_564" data-name="Group 564" transform="translate(0.541 3.312)">
            <g id="Group_563" data-name="Group 563">
              <path id="Path_37002" data-name="Path 37002" d="M170.238,455.544a41.233,41.233,0,0,1-4.979,0,41.418,41.418,0,0,1,4.979,0Z" transform="translate(-165.259 -455.469)" fill="#ebebeb"/>
            </g>
          </g>
          <g id="Group_566" data-name="Group 566" transform="translate(30.48 3.172)">
            <g id="Group_565" data-name="Group 565">
              <path id="Path_37003" data-name="Path 37003" d="M273.955,455.059a38.343,38.343,0,0,1-4.792,0,38.343,38.343,0,0,1,4.792,0Z" transform="translate(-269.163 -454.984)" fill="#ebebeb"/>
            </g>
          </g>
        </g>
        <g id="Group_580" data-name="Group 580" transform="translate(6.286 20.333)">
          <g id="Group_569" data-name="Group 569" transform="translate(0 0.003)">
            <g id="Group_568" data-name="Group 568">
              <path id="Path_37004" data-name="Path 37004" d="M181.229,423.19c0,.042-4.129.075-9.221.075s-9.221-.033-9.221-.075,4.128-.075,9.221-.075S181.229,423.149,181.229,423.19Z" transform="translate(-162.787 -423.115)" fill="#ebebeb"/>
            </g>
          </g>
          <g id="Group_571" data-name="Group 571" transform="translate(9.653 3.312)">
            <g id="Group_570" data-name="Group 570">
              <path id="Path_37005" data-name="Path 37005" d="M214.728,434.676c0,.042-4.129.075-9.22.075s-9.221-.033-9.221-.075,4.128-.075,9.221-.075S214.728,434.634,214.728,434.676Z" transform="translate(-196.286 -434.601)" fill="#ebebeb"/>
            </g>
          </g>
          <g id="Group_573" data-name="Group 573" transform="translate(29.738 0.003)">
            <g id="Group_572" data-name="Group 572">
              <path id="Path_37006" data-name="Path 37006" d="M284.434,423.19c0,.042-4.129.075-9.221.075s-9.221-.033-9.221-.075,4.128-.075,9.221-.075S284.434,423.149,284.434,423.19Z" transform="translate(-265.992 -423.115)" fill="#ebebeb"/>
            </g>
          </g>
          <g id="Group_575" data-name="Group 575" transform="translate(21.298)">
            <g id="Group_574" data-name="Group 574">
              <path id="Path_37007" data-name="Path 37007" d="M241.68,423.181a41.418,41.418,0,0,1-4.979,0,41.216,41.216,0,0,1,4.979,0Z" transform="translate(-236.701 -423.106)" fill="#ebebeb"/>
            </g>
          </g>
          <g id="Group_577" data-name="Group 577" transform="translate(0.541 3.312)">
            <g id="Group_576" data-name="Group 576">
              <path id="Path_37008" data-name="Path 37008" d="M169.643,434.676a41.384,41.384,0,0,1-4.979,0,41.417,41.417,0,0,1,4.979,0Z" transform="translate(-164.664 -434.601)" fill="#ebebeb"/>
            </g>
          </g>
          <g id="Group_579" data-name="Group 579" transform="translate(30.48 3.172)">
            <g id="Group_578" data-name="Group 578">
              <path id="Path_37009" data-name="Path 37009" d="M273.359,434.19a38.363,38.363,0,0,1-4.792,0,38.192,38.192,0,0,1,4.792,0Z" transform="translate(-268.567 -434.115)" fill="#ebebeb"/>
            </g>
          </g>
        </g>
        <g id="Group_581" data-name="Group 581" transform="translate(15.792 13.547)">
          <path id="Path_37010" data-name="Path 37010" d="M201.373,399.556v6.3H200.2v-2.7h-3.256v2.7h-1.17v-6.3h1.17v2.6H200.2v-2.6Z" transform="translate(-195.778 -399.556)" fill="#263238"/>
          <path id="Path_37011" data-name="Path 37011" d="M220.338,400.545h-2.087v-.989h5.343v.989h-2.087v5.307h-1.17Z" transform="translate(-211.776 -399.556)" fill="#263238"/>
          <path id="Path_37012" data-name="Path 37012" d="M245.634,405.853l-.009-4.174-2.069,3.454h-.522l-2.069-3.4v4.12H239.85v-6.3h.962l2.5,4.174,2.456-4.174h.963l.009,6.3Z" transform="translate(-227.151 -399.556)" fill="#263238"/>
          <path id="Path_37013" data-name="Path 37013" d="M269.657,399.556h1.17v5.307h3.292v.99h-4.462Z" transform="translate(-248.369 -399.556)" fill="#263238"/>
        </g>
      </g>
    </g>
    <g id="Speech_Bubble" data-name="Speech Bubble" transform="translate(73.813 66.373)">
      <g id="Group_606" data-name="Group 606">
        <g id="Group_589" data-name="Group 589">
          <g id="Group_588" data-name="Group 588">
            <g id="Group_587" data-name="Group 587">
              <g id="Group_586" data-name="Group 586">
                <g id="Group_583" data-name="Group 583" transform="translate(0.073 0.064)">
                  <path id="Path_37014" data-name="Path 37014" d="M159.577,131.32l-3.227-1.643a8.438,8.438,0,1,0-.447,2.989v0Z" transform="translate(-139.508 -121.528)" fill="#fff"/>
                </g>
                <g id="Group_585" data-name="Group 585">
                  <g id="Group_584" data-name="Group 584">
                    <path id="Path_37015" data-name="Path 37015" d="M159.4,131.163l-3.661,1.387a.037.037,0,0,1-.048-.022.043.043,0,0,1,0-.016v0l.073.015a8.419,8.419,0,0,1-2.435,3.659,7.565,7.565,0,0,1-1.077.794c-.2.116-.4.241-.605.354l-.655.3a8.517,8.517,0,0,1-6.271.085,8.419,8.419,0,0,1-2.991-1.935,8.613,8.613,0,0,1-1.989-3.19,8.332,8.332,0,0,1-.4-3.9,8.485,8.485,0,0,1,1.435-3.734,8.619,8.619,0,0,1,2.84-2.572,8.332,8.332,0,0,1,3.467-1.058,8.564,8.564,0,0,1,6.063,1.909,9.118,9.118,0,0,1,1.818,2.09,8.393,8.393,0,0,1,1.251,4.188l-.02-.031,3.211,1.675-3.243-1.611a.036.036,0,0,1-.02-.031,8.372,8.372,0,0,0-1.268-4.136,9.042,9.042,0,0,0-1.8-2.055,8.461,8.461,0,0,0-5.978-1.863,8.206,8.206,0,0,0-3.407,1.047,8.482,8.482,0,0,0-2.788,2.531,8.345,8.345,0,0,0-1.409,3.668,8.194,8.194,0,0,0,.4,3.829,8.478,8.478,0,0,0,1.951,3.138,8.293,8.293,0,0,0,2.937,1.908,8.41,8.41,0,0,0,6.176-.065l.647-.3c.205-.111.4-.233.6-.347a7.515,7.515,0,0,0,1.068-.779,8.39,8.39,0,0,0,2.433-3.6.037.037,0,0,1,.073.015v0l-.05-.038Z" transform="translate(-139.253 -121.306)" fill="#263238"/>
                  </g>
                </g>
              </g>
            </g>
          </g>
        </g>
        <g id="Group_605" data-name="Group 605" transform="translate(4.609 6.031)">
          <g id="Group_594" data-name="Group 594" transform="translate(5.757 0.85)">
            <g id="Group_593" data-name="Group 593">
              <g id="Group_592" data-name="Group 592">
                <g id="Group_591" data-name="Group 591">
                  <g id="Group_590" data-name="Group 590">
                    <path id="Path_37016" data-name="Path 37016" d="M175.362,148.73a.859.859,0,0,1,.13-.148l.376-.378c.321-.317.767-.75,1.265-1.224l.011-.011v.064c-.5-.465-.951-.89-1.273-1.2l-.379-.371a.857.857,0,0,1-.131-.144.81.81,0,0,1,.154.12l.4.35c.333.3.79.716,1.291,1.181l.034.032-.034.032-.011.011c-.5.474-.951.9-1.282,1.205l-.4.358A.83.83,0,0,1,175.362,148.73Z" transform="translate(-175.324 -145.28)" fill="#263238"/>
                    <path id="Path_37017" data-name="Path 37017" d="M175.267,148.674a.033.033,0,0,1-.024-.013h0c-.027-.029-.018-.042.131-.2l.377-.379c.325-.321.755-.737,1.215-1.176-.454-.422-.882-.826-1.211-1.142l-.379-.371c-.143-.145-.161-.164-.132-.2s.047-.016.2.117l.4.35c.339.3.776.7,1.237,1.131l.005-.005v.011l.048.045.062.058-.073.069-.037.035v.012l-.006-.006c-.469.447-.908.86-1.24,1.165l-.4.358C175.332,148.639,175.292,148.674,175.267,148.674Zm1.75-1.717c-.352.337-.688.66-.971.937.287-.267.626-.587.983-.927l0,0Zm.07-.054v.01l.005,0Zm-1.033-.949c.284.27.616.582.963.9l.011-.01C176.678,146.524,176.343,146.216,176.054,145.954Z" transform="translate(-175.23 -145.187)" fill="#263238"/>
                  </g>
                </g>
              </g>
            </g>
          </g>
          <g id="Group_599" data-name="Group 599" transform="translate(0 0.85)">
            <g id="Group_598" data-name="Group 598">
              <g id="Group_597" data-name="Group 597">
                <g id="Group_596" data-name="Group 596">
                  <g id="Group_595" data-name="Group 595">
                    <path id="Path_37018" data-name="Path 37018" d="M157.308,145.318a.864.864,0,0,1-.13.147l-.376.378c-.32.317-.767.749-1.264,1.224l-.012.011v-.064c.5.465.951.89,1.273,1.2l.379.371a.833.833,0,0,1,.131.145.846.846,0,0,1-.154-.12l-.4-.35c-.333-.3-.79-.716-1.291-1.181l-.034-.032.034-.032.011-.011c.5-.474.951-.9,1.282-1.205l.4-.358A.86.86,0,0,1,157.308,145.318Z" transform="translate(-155.38 -145.28)" fill="#263238"/>
                    <path id="Path_37019" data-name="Path 37019" d="M157.181,148.674c-.024,0-.065-.033-.179-.13l-.4-.351c-.333-.3-.77-.7-1.236-1.13l-.006.006v-.012l-.049-.045-.062-.058.073-.069.037-.035v-.012l.006.006c.469-.447.908-.859,1.24-1.165l.4-.358c.156-.137.175-.151.2-.121s.012.05-.13.2l-.377.379c-.323.319-.753.735-1.215,1.177.459.427.887.831,1.211,1.142l.379.371c.145.146.16.164.132.194A.034.034,0,0,1,157.181,148.674Zm-1.761-1.661c.352.326.687.634.973.893-.281-.267-.612-.579-.962-.9Zm-.065-.06.005,0v-.01Zm.064-.061,0,0,.01.009c.354-.338.69-.662.972-.938C156.115,146.233,155.775,146.553,155.419,146.892Z" transform="translate(-155.25 -145.187)" fill="#263238"/>
                  </g>
                </g>
              </g>
            </g>
          </g>
          <g id="Group_604" data-name="Group 604" transform="translate(2.886)">
            <g id="Group_603" data-name="Group 603">
              <g id="Group_602" data-name="Group 602">
                <g id="Group_601" data-name="Group 601">
                  <g id="Group_600" data-name="Group 600">
                    <path id="Path_37020" data-name="Path 37020" d="M165.386,147.432c-.023-.009.383-1.15.906-2.548s.966-2.526.988-2.517-.383,1.149-.907,2.548S165.408,147.44,165.386,147.432Z" transform="translate(-165.35 -142.328)" fill="#263238"/>
                    <path id="Path_37021" data-name="Path 37021" d="M165.3,147.377a.048.048,0,0,1-.016,0h0c-.043-.016-.05-.019.227-.8.171-.481.405-1.119.658-1.8s.5-1.311.682-1.787c.3-.769.309-.767.352-.751s.05.019-.227.8c-.171.482-.405,1.12-.658,1.8s-.5,1.31-.682,1.787C165.377,147.292,165.338,147.377,165.3,147.377Zm1.483-4.012c-.152.392-.337.88-.546,1.439s-.389,1.049-.532,1.444c.152-.393.337-.88.546-1.439S166.644,143.761,166.787,143.365Z" transform="translate(-165.265 -142.236)" fill="#263238"/>
                  </g>
                </g>
              </g>
            </g>
          </g>
        </g>
      </g>
    </g>
    <g id="Floor" transform="translate(52.136 167.529)">
      <g id="Group_608" data-name="Group 608" transform="translate(0)">
        <g id="Group_607" data-name="Group 607">
          <path id="Path_37022" data-name="Path 37022" d="M240.354,472.444c0,.042-39.476.075-88.161.075-48.7,0-88.169-.034-88.169-.075s39.468-.075,88.169-.075C200.878,472.369,240.354,472.4,240.354,472.444Z" transform="translate(-64.024 -472.369)" fill="#263238"/>
        </g>
      </g>
    </g>
    <g id="Character" transform="translate(118.93 149.096)">
      <g id="Group_621" data-name="Group 621">
        <g id="Group_614" data-name="Group 614" transform="translate(0 11.606)">
          <g id="Group_613" data-name="Group 613">
            <g id="Group_612" data-name="Group 612">
              <g id="Group_611" data-name="Group 611">
                <g id="Group_610" data-name="Group 610">
                  <g id="Group_609" data-name="Group 609">
                    <path id="Path_37023" data-name="Path 37023" d="M296.228,450.121a.6.6,0,0,0,.113-.249,1.812,1.812,0,0,0,.059-.745.973.973,0,0,0-.059-.253.312.312,0,0,0-.247-.2.221.221,0,0,0-.183.063.3.3,0,0,0-.076.169,1.871,1.871,0,0,0,.006.314c.016.209.016.409.05.652a.4.4,0,0,0,.256.31.786.786,0,0,0,.387.016,3.079,3.079,0,0,0,.679-.2,3.2,3.2,0,0,0,.3-.149.878.878,0,0,0,.274-.207.291.291,0,0,0,.007-.369.349.349,0,0,0-.329-.079,2.035,2.035,0,0,0-.486.2,2.641,2.641,0,0,0-.6.443c-.124.125-.178.206-.171.213a5.2,5.2,0,0,1,.821-.553,2.077,2.077,0,0,1,.456-.169.22.22,0,0,1,.2.04.147.147,0,0,1-.019.182.771.771,0,0,1-.231.163,3.127,3.127,0,0,1-.288.138,3.014,3.014,0,0,1-.644.187.635.635,0,0,1-.305-.007.23.23,0,0,1-.154-.19c-.029-.2-.037-.43-.056-.63a1.9,1.9,0,0,1-.014-.284c.009-.082.046-.121.1-.116.135.009.182.189.2.334A2.619,2.619,0,0,1,296.228,450.121Z" transform="translate(-295.83 -448.674)" fill="#263238"/>
                  </g>
                </g>
              </g>
            </g>
          </g>
        </g>
        <g id="Group_620" data-name="Group 620" transform="translate(11.757)">
          <g id="Group_619" data-name="Group 619">
            <g id="Group_618" data-name="Group 618">
              <g id="Group_617" data-name="Group 617">
                <g id="Group_616" data-name="Group 616">
                  <g id="Group_615" data-name="Group 615">
                    <path id="Path_37024" data-name="Path 37024" d="M337.538,409.867a.607.607,0,0,0-.008-.273,1.814,1.814,0,0,0-.276-.695.976.976,0,0,0-.165-.2.312.312,0,0,0-.309-.069.221.221,0,0,0-.137.137.3.3,0,0,0,.006.185,1.859,1.859,0,0,0,.144.279c.107.18.2.36.333.563a.394.394,0,0,0,.367.165.785.785,0,0,0,.354-.157,3.076,3.076,0,0,0,.521-.48,3.18,3.18,0,0,0,.2-.267.881.881,0,0,0,.154-.307.291.291,0,0,0-.156-.334.347.347,0,0,0-.33.075,2.018,2.018,0,0,0-.348.394,2.64,2.64,0,0,0-.341.662.679.679,0,0,0-.059.266,5.244,5.244,0,0,1,.493-.859,2.1,2.1,0,0,1,.334-.353.22.22,0,0,1,.2-.052.147.147,0,0,1,.064.172.767.767,0,0,1-.135.248,3.18,3.18,0,0,1-.2.251,3.047,3.047,0,0,1-.5.452.646.646,0,0,1-.278.128.231.231,0,0,1-.222-.1c-.114-.166-.223-.37-.328-.54a1.95,1.95,0,0,1-.138-.249c-.028-.078-.012-.129.042-.15.125-.052.246.09.331.209A2.618,2.618,0,0,1,337.538,409.867Z" transform="translate(-336.632 -408.396)" fill="#263238"/>
                  </g>
                </g>
              </g>
            </g>
          </g>
        </g>
      </g>
    </g>
    <g id="Picture" transform="translate(136.232 65.3)">
      <g id="Group_642" data-name="Group 642" transform="translate(0 0)">
        <g id="Group_623" data-name="Group 623" transform="translate(0.718 0.922)">
          <g id="Group_622" data-name="Group 622">
            <path id="Path_37025" data-name="Path 37025" d="M388.73,147.905s0-.173-.007-.5,0-.816-.007-1.449c0-1.269-.01-3.125-.017-5.49-.008-4.725-.019-11.479-.033-19.607l.063.063-30.281.012h0l.075-.075c0,9.839-.006,19.1-.009,27.047l-.066-.066,21.9.033,6.178.017,1.635.008.422,0c.1,0,.145,0,.145,0s-.045,0-.138,0l-.414,0-1.622.008-6.163.017-21.947.033h-.066V147.9c0-7.949-.006-17.208-.009-27.047v-.075h.078l30.281.012h.064v.064c-.014,8.145-.025,14.912-.033,19.647-.007,2.358-.013,4.209-.016,5.475,0,.627-.006,1.108-.007,1.436S388.73,147.905,388.73,147.905Z" transform="translate(-358.371 -120.783)" fill="#263238"/>
          </g>
        </g>
        <g id="Group_633" data-name="Group 633" transform="translate(2.769 2.534)">
          <g id="Group_632" data-name="Group 632">
            <g id="Group_628" data-name="Group 628">
              <g id="Group_627" data-name="Group 627">
                <g id="Group_626" data-name="Group 626">
                  <g id="Group_625" data-name="Group 625">
                    <g id="Group_624" data-name="Group 624">
                      <rect id="Rectangle_158" data-name="Rectangle 158" width="25.84" height="23.972" fill="#e62446"/>
                    </g>
                  </g>
                </g>
              </g>
            </g>
            <g id="Group_631" data-name="Group 631" transform="translate(1.853 1.865)" opacity="0.3">
              <g id="Group_629" data-name="Group 629" transform="translate(11.917 3.537)">
                <path id="Path_37026" data-name="Path 37026" d="M415.135,145.127A1.785,1.785,0,1,0,417,146.91,1.823,1.823,0,0,0,415.135,145.127Z" transform="translate(-413.276 -145.127)"/>
              </g>
              <g id="Group_630" data-name="Group 630">
                <path id="Path_37027" data-name="Path 37027" d="M393.9,132.871l-21.831-.016c.024-.027-.235.225-.126.121v1.359q0,.679,0,1.353,0,1.347,0,2.669c0,1.761,0,3.486,0,5.166,0,3.357.008,6.531.012,9.451v.1h.107l15.854-.052,4.428-.027,1.16-.012.294-.006a.582.582,0,0,0,.1-.006.809.809,0,0,0-.108-.006l-.306-.006-1.181-.012-4.452-.027-4.878-.016H393.9a.466.466,0,0,0,0,.067.4.4,0,0,0,.006-.087c0-.069,0-.157.006-.269q0-.376.012-1.06c.006-.945.016-2.312.027-4.048.013-3.517.032-8.525.054-14.539v-.1Zm-5.285,11.4-3.553,4.187-5.847-7.884-7.04,12.15c0-2.851.007-5.937.012-9.2,0-1.679,0-3.4,0-5.166q0-1.321,0-2.669,0-.674,0-1.353V133.09l21.6-.017c.022,5.941.041,10.892.054,14.373.012,1.746.021,3.121.027,4.071q.008.7.012,1.079c0,.116,0,.207.006.279,0,.01,0,.015,0,.023Z" transform="translate(-371.919 -132.852)"/>
              </g>
            </g>
          </g>
        </g>
        <g id="Group_634" data-name="Group 634">
          <rect id="Rectangle_159" data-name="Rectangle 159" width="1.586" height="1.586" fill="#263238"/>
        </g>
        <g id="Group_635" data-name="Group 635" transform="translate(30.028)">
          <rect id="Rectangle_160" data-name="Rectangle 160" width="1.586" height="1.586" fill="#263238"/>
        </g>
        <g id="Group_636" data-name="Group 636" transform="translate(30.028 26.989)">
          <rect id="Rectangle_161" data-name="Rectangle 161" width="1.586" height="1.586" fill="#263238"/>
        </g>
        <g id="Group_637" data-name="Group 637" transform="translate(0.224 26.989)">
          <rect id="Rectangle_162" data-name="Rectangle 162" width="1.586" height="1.586" fill="#263238"/>
        </g>
        <g id="Group_638" data-name="Group 638" transform="translate(0.224 13.652)">
          <rect id="Rectangle_163" data-name="Rectangle 163" width="1.586" height="1.586" fill="#263238"/>
        </g>
        <g id="Group_639" data-name="Group 639" transform="translate(14.947 27.25)">
          <rect id="Rectangle_164" data-name="Rectangle 164" width="1.586" height="1.586" fill="#263238"/>
        </g>
        <g id="Group_640" data-name="Group 640" transform="translate(30.284 12.859)">
          <rect id="Rectangle_165" data-name="Rectangle 165" width="1.586" height="1.586" fill="#263238"/>
        </g>
        <g id="Group_641" data-name="Group 641" transform="translate(14.952 0.143)">
          <rect id="Rectangle_166" data-name="Rectangle 166" width="1.586" height="1.586" fill="#263238"/>
        </g>
      </g>
    </g>
  </g>
</svg>
