<svg xmlns="http://www.w3.org/2000/svg" width="101.661" height="131.297" viewBox="0 0 101.661 131.297">
  <g id="ico03" transform="translate(-111.83 -92.376)">
    <g id="Group_704" data-name="Group 704" transform="translate(111.83 95.925)">
      <g id="Group_703" data-name="Group 703">
        <g id="Group_702" data-name="Group 702">
          <path id="Path_37072" data-name="Path 37072" d="M153.421,134.536H115.286a3.46,3.46,0,0,1-3.456-3.456V104.859a3.46,3.46,0,0,1,3.456-3.456h38.135a3.46,3.46,0,0,1,3.456,3.456V131.08A3.46,3.46,0,0,1,153.421,134.536Zm-38.135-32.892a3.219,3.219,0,0,0-3.216,3.216V131.08a3.22,3.22,0,0,0,3.216,3.216h38.135a3.22,3.22,0,0,0,3.216-3.216V104.859a3.219,3.219,0,0,0-3.216-3.216Z" transform="translate(-111.83 -101.403)" fill="#78c2ff"/>
        </g>
      </g>
    </g>
    <g id="Group_706" data-name="Group 706" transform="translate(122.391 113.572)">
      <g id="Group_705" data-name="Group 705" transform="translate(0)">
        <rect id="Rectangle_185" data-name="Rectangle 185" width="0.353" height="42.251" fill="#78c2ff"/>
      </g>
    </g>
    <g id="Group_708" data-name="Group 708" transform="translate(132.09 94.263)">
      <g id="Group_707" data-name="Group 707" transform="translate(0 0)">
        <path id="Path_37073" data-name="Path 37073" d="M238.225,203.589h-2.4v-.4h2.4Zm-4.8,0h-2.4v-.4h2.4Zm-4.8,0h-2.4v-.4h2.4Zm-4.8,0h-2.4v-.4h2.4Zm-4.8,0h-2.4v-.4h2.4Zm-4.8,0h-2.4v-.4h2.4Zm-4.8,0H207v-.4h2.4Zm-4.8,0h-2.4v-.4h2.4Zm-4.8,0h-2.4v-.4h2.4Zm-4.8,0h-2.4v-.4h2.4Zm-4.8,0h-2.4v-.4h2.4Zm-4.8,0h-2.4v-.4h2.4Zm-4.8,0h-2.4v-.4h2.4Zm-4.8,0h-2.4v-.4h2.4Zm-4.8,0h-2.4v-.4h2.4Zm69.685-.059-.062-.4a4.458,4.458,0,0,0,2.081-.913l.248.313A4.862,4.862,0,0,1,240.655,203.53Zm-74.508-.408a4.889,4.889,0,0,1-1.895-1.595l.327-.231a4.491,4.491,0,0,0,1.739,1.464Zm78.262-2.569-.372-.15a4.435,4.435,0,0,0,.327-1.68v-.6h.4v.6A4.84,4.84,0,0,1,244.409,200.553Zm-81.022-1.347c-.016-.159-.024-.322-.024-.483v-1.937h.4v1.937c0,.149.007.3.022.444Zm81.377-3.488h-.4v-2.4h.4Zm-81-1.334h-.4v-2.4h.4Zm81-3.47h-.4v-2.4h.4Zm-81-1.334h-.4v-2.4h.4Zm81-3.469h-.4v-2.4h.4Zm-81-1.335h-.4v-2.4h.4Zm81-3.47h-.4v-2.4h.4Zm-81-1.335h-.4v-2.4h.4Zm81-3.47h-.4v-2.4h.4Zm-81-1.334h-.4v-2.4h.4Zm81-3.47h-.4v-2.4h.4Zm-81-1.334h-.4v-2.4h.4Zm81-3.469h-.4v-2.4h.4Zm-81-1.334h-.4v-2.4h.4Zm81-3.47h-.4v-2.4h.4Zm-81-1.334h-.4v-2.4h.4Zm81-3.47h-.4v-2.4h.4Zm-81-1.334h-.4v-2.4h.4Zm81-3.469h-.4v-2.4h.4Zm-81-1.335h-.4v-2.4h.4Zm81-3.469h-.4v-2.4h.4Zm-81-1.334h-.4v-2.4h.4Zm81-3.469h-.4v-2.4h.4Zm-81-1.334h-.4v-2.4h.4Zm81-3.469h-.4v-2.4h.4Zm-81-1.334h-.4v-2.4h.4Zm81-3.47h-.4v-2.4h.4Zm-81-1.334h-.4v-2.4h.4Zm81-3.47h-.4v-2.4h.4Zm-81-1.334h-.4v-2.4h.4Zm81-3.47h-.4v-2.4h.4Zm-81-1.334h-.4v-2.4h.4Zm81-3.47h-.4v-2.4h.4Zm-81-1.334h-.4v-2.4h.4Zm81-3.47h-.4v-2.4h.4Zm-81-1.334h-.4v-2.4h.4Zm81-3.47h-.4v-2.4h.4Zm-81-1.334h-.4v-2.4h.4Zm81-3.47h-.4v-2.4a4.511,4.511,0,0,0-.087-.883l.393-.079a4.891,4.891,0,0,1,.095.962Zm-81-1.334h-.4v-1.068a4.874,4.874,0,0,1,.2-1.372l.385.113a4.466,4.466,0,0,0-.18,1.259Zm79.511-3.99a4.475,4.475,0,0,0-1.876-1.284l.134-.377a4.882,4.882,0,0,1,2.044,1.4Zm-78.155-.282-.279-.287A4.867,4.867,0,0,1,167,97.333l.1.387A4.467,4.467,0,0,0,165.12,98.837Zm73.975-1.26h-2.4v-.4h2.4Zm-4.8,0h-2.4v-.4h2.4Zm-4.8,0h-2.4v-.4h2.4Zm-4.8,0h-2.4v-.4h2.4Zm-4.8,0h-2.4v-.4h2.4Zm-4.8,0h-2.4v-.4h2.4Zm-4.8,0h-2.4v-.4h2.4Zm-4.8,0h-2.4v-.4h2.4Zm-4.8,0h-2.4v-.4h2.4Zm-4.8,0h-2.4v-.4h2.4Zm-4.8,0h-2.4v-.4h2.4Zm-4.8,0h-2.4v-.4h2.4Zm-4.8,0h-2.4v-.4h2.4Zm-4.8,0h-2.4v-.4h2.4Zm-4.8,0h-2.4v-.4h2.4Z" transform="translate(-163.363 -97.176)" fill="#e62446"/>
      </g>
    </g>
    <g id="Group_711" data-name="Group 711" transform="translate(127.165 102.379)">
      <g id="Group_710" data-name="Group 710">
        <g id="Group_709" data-name="Group 709">
          <rect id="Rectangle_186" data-name="Rectangle 186" width="81.001" height="106.012" fill="#f5f5f5"/>
        </g>
      </g>
    </g>
    <g id="Group_714" data-name="Group 714" transform="translate(149.169 176.443)" opacity="0.85">
      <g id="Group_713" data-name="Group 713">
        <g id="Group_712" data-name="Group 712">
          <path id="Path_37074" data-name="Path 37074" d="M252.6,308.65v29.506H206.8V308.985a2.777,2.777,0,0,1,2.777-2.777h40.581A2.442,2.442,0,0,1,252.6,308.65Z" transform="translate(-206.805 -306.208)" fill="#4392d1"/>
        </g>
      </g>
    </g>
    <g id="Group_730" data-name="Group 730" transform="translate(135.85 149.139)">
      <g id="Group_717" data-name="Group 717" transform="translate(0)">
        <g id="Group_716" data-name="Group 716">
          <g id="Group_715" data-name="Group 715">
            <path id="Path_37075" data-name="Path 37075" d="M179.882,256.7a10.24,10.24,0,0,0,13.522-9.57c0-.23,0-.46-.013-.686A10.24,10.24,0,1,0,179.882,256.7Zm-4.393-9.8a7.678,7.678,0,0,1,14.894-2.523l0,0a7.658,7.658,0,0,1,.447,2.2c.009.17.011.341.01.515a7.677,7.677,0,1,1-15.353-.2Z" transform="translate(-172.927 -236.757)" fill="#78c2ff"/>
          </g>
        </g>
      </g>
      <g id="Group_720" data-name="Group 720" transform="translate(6.955 14.94)">
        <g id="Group_719" data-name="Group 719">
          <g id="Group_718" data-name="Group 718">
            <path id="Path_37076" data-name="Path 37076" d="M199.972,274.758,202,276.327a10.255,10.255,0,0,1-11.38,3.431l.822-2.428a7.688,7.688,0,0,0,8.532-2.573Z" transform="translate(-190.618 -274.758)" fill="#1a598c"/>
          </g>
        </g>
      </g>
      <g id="Group_723" data-name="Group 723" transform="translate(16.309 9.685)">
        <g id="Group_722" data-name="Group 722">
          <g id="Group_721" data-name="Group 721">
            <path id="Path_37077" data-name="Path 37077" d="M216.006,261.531l2.559-.139c.012.226.017.456.014.686a10.2,10.2,0,0,1-2.142,6.138l-2.026-1.569a7.64,7.64,0,0,0,1.606-4.6Q216.019,261.786,216.006,261.531Z" transform="translate(-214.41 -261.392)" fill="#2273b5"/>
          </g>
        </g>
      </g>
      <g id="Group_726" data-name="Group 726" transform="translate(17.456 6.743)">
        <g id="Group_725" data-name="Group 725">
          <g id="Group_724" data-name="Group 724">
            <path id="Path_37078" data-name="Path 37078" d="M217.777,256.989a7.658,7.658,0,0,0-.447-2.2l0,0,2.409-.876a10.2,10.2,0,0,1,.6,2.943Z" transform="translate(-217.328 -253.907)" fill="#2273b5"/>
          </g>
        </g>
      </g>
      <g id="Group_729" data-name="Group 729" transform="translate(4.08)">
        <g id="Group_728" data-name="Group 728">
          <g id="Group_727" data-name="Group 727">
            <path id="Path_37079" data-name="Path 37079" d="M183.3,238.817A10.242,10.242,0,0,1,199.09,243.5l-2.407.879,0,0a7.676,7.676,0,0,0-11.874-3.481Z" transform="translate(-183.304 -236.757)" fill="#4da8f2"/>
          </g>
        </g>
      </g>
    </g>
    <path id="Path_37080" data-name="Path 37080" d="M179.48,295.451a3.644,3.644,0,0,0-6.362,1.023h0a3.643,3.643,0,0,0,3.118,4.8c.095.009.191.014.288.015.06,0,.12,0,.18,0h.063a3.644,3.644,0,0,0,2.714-5.83Zm-1.978,4.76h0a2.726,2.726,0,0,1-.784.159h0c-.061,0-.121,0-.183,0a2.759,2.759,0,0,1-1.637-.572,2.833,2.833,0,0,1-.271-.242,2.72,2.72,0,0,1-.717-2.528c.021-.09.044-.179.074-.266a2.732,2.732,0,1,1,3.521,3.444Z" transform="translate(-37.077 -122.356)" fill="#4da8f2"/>
    <g id="Group_733" data-name="Group 733" transform="translate(133.444 195.926)" opacity="0.3">
      <g id="Group_732" data-name="Group 732" transform="translate(0)">
        <g id="Group_731" data-name="Group 731">
          <path id="Rectangle_187" data-name="Rectangle 187" d="M5.019,0H15.46a5.018,5.018,0,0,1,5.018,5.018v5a5.019,5.019,0,0,1-5.019,5.019H5.02A5.02,5.02,0,0,1,0,10.014V5.019A5.019,5.019,0,0,1,5.019,0Z" fill="#4da8f2"/>
        </g>
      </g>
    </g>
    <g id="Group_736" data-name="Group 736" transform="translate(180.76 195.926)" opacity="0.3">
      <g id="Group_735" data-name="Group 735" transform="translate(0)">
        <g id="Group_734" data-name="Group 734">
          <path id="Rectangle_188" data-name="Rectangle 188" d="M5.02,0H15.46a5.018,5.018,0,0,1,5.018,5.018v5a5.018,5.018,0,0,1-5.018,5.018H5.02A5.02,5.02,0,0,1,0,10.014V5.02A5.02,5.02,0,0,1,5.02,0Z" fill="#4da8f2"/>
        </g>
      </g>
    </g>
    <g id="Group_739" data-name="Group 739" transform="translate(134.583 109.908)" opacity="0.82">
      <g id="Group_738" data-name="Group 738">
        <g id="Group_737" data-name="Group 737">
          <path id="Path_37081" data-name="Path 37081" d="M211.295,170.1H173.16a3.46,3.46,0,0,1-3.456-3.456V140.427a3.46,3.46,0,0,1,3.456-3.456h38.135a3.46,3.46,0,0,1,3.456,3.456v26.221A3.46,3.46,0,0,1,211.295,170.1ZM173.16,137.211a3.22,3.22,0,0,0-3.216,3.216v26.221a3.22,3.22,0,0,0,3.216,3.216h38.135a3.219,3.219,0,0,0,3.216-3.216V140.427a3.22,3.22,0,0,0-3.216-3.216Z" transform="translate(-169.704 -136.971)" fill="#4da8f2"/>
        </g>
      </g>
    </g>
    <g id="Group_740" data-name="Group 740" transform="translate(131.677 190.966)">
      <path id="Path_37082" data-name="Path 37082" d="M163.628,344.579a.806.806,0,1,1,.114-1.135A.807.807,0,0,1,163.628,344.579Zm-.859-1.052a.552.552,0,1,0,.776.078A.553.553,0,0,0,162.769,343.527Z" transform="translate(-162.312 -343.148)" fill="#e3f2ff"/>
    </g>
    <g id="Group_742" data-name="Group 742" transform="translate(188.476 112.577)">
      <g id="Group_741" data-name="Group 741" transform="translate(0 0)">
        <path id="Path_37083" data-name="Path 37083" d="M312.744,151.407H308.48a1.7,1.7,0,0,1-1.693-1.692v-4.264a1.7,1.7,0,0,1,1.693-1.693h4.264a1.7,1.7,0,0,1,1.693,1.693v4.264A1.7,1.7,0,0,1,312.744,151.407Zm-4.264-7.333a1.378,1.378,0,0,0-1.376,1.376v4.264a1.378,1.378,0,0,0,1.376,1.376h4.264a1.378,1.378,0,0,0,1.376-1.376v-4.264a1.378,1.378,0,0,0-1.376-1.376Z" transform="translate(-306.787 -143.758)" fill="#78c2ff"/>
      </g>
    </g>
    <g id="Group_744" data-name="Group 744" transform="translate(188.476 122.729)">
      <g id="Group_743" data-name="Group 743">
        <path id="Path_37084" data-name="Path 37084" d="M312.744,177.231H308.48a1.7,1.7,0,0,1-1.693-1.693v-4.264a1.7,1.7,0,0,1,1.693-1.692h4.264a1.7,1.7,0,0,1,1.693,1.692v4.264A1.7,1.7,0,0,1,312.744,177.231ZM308.48,169.9a1.378,1.378,0,0,0-1.376,1.376v4.264a1.378,1.378,0,0,0,1.376,1.376h4.264a1.378,1.378,0,0,0,1.376-1.376v-4.264a1.378,1.378,0,0,0-1.376-1.376Z" transform="translate(-306.787 -169.582)" fill="#78c2ff"/>
      </g>
    </g>
    <g id="Group_746" data-name="Group 746" transform="translate(188.635 133.04)">
      <g id="Group_745" data-name="Group 745">
        <rect id="Rectangle_189" data-name="Rectangle 189" width="7.333" height="7.333" rx="3.666" fill="#78c2ff"/>
      </g>
    </g>
    <g id="Group_750" data-name="Group 750" transform="translate(190.09 135.091)">
      <g id="Group_749" data-name="Group 749">
        <g id="Group_748" data-name="Group 748">
          <g id="Group_747" data-name="Group 747">
            <path id="Path_37085" data-name="Path 37085" d="M312.87,204.257l-1.854-1.616a.365.365,0,1,1,.48-.551l1.311,1.143,1.869-2.085a.365.365,0,1,1,.544.487Z" transform="translate(-310.891 -201.026)" fill="#f3f3f3"/>
          </g>
        </g>
      </g>
    </g>
    <g id="Group_753" data-name="Group 753" transform="translate(151.296 178.456)">
      <g id="Group_752" data-name="Group 752" transform="translate(0)">
        <g id="Group_751" data-name="Group 751">
          <rect id="Rectangle_190" data-name="Rectangle 190" width="46.154" height="45.217" rx="6.573" fill="#5e6383"/>
        </g>
      </g>
    </g>
    <g id="Group_756" data-name="Group 756" transform="translate(160.863 149.452)">
      <g id="Group_755" data-name="Group 755" transform="translate(0)">
        <g id="Group_754" data-name="Group 754">
          <rect id="Rectangle_191" data-name="Rectangle 191" width="35.104" height="4.13" rx="2.065" fill="#78c2ff"/>
        </g>
      </g>
    </g>
    <g id="Group_759" data-name="Group 759" transform="translate(160.663 156.444)">
      <g id="Group_758" data-name="Group 758">
        <g id="Group_757" data-name="Group 757">
          <path id="Path_37086" data-name="Path 37086" d="M269.912,259.87H237.675a1.636,1.636,0,0,1-1.634-1.634v-1.263a1.636,1.636,0,0,1,1.634-1.634h32.237a1.636,1.636,0,0,1,1.634,1.634v1.263A1.636,1.636,0,0,1,269.912,259.87Zm-32.237-4.131a1.236,1.236,0,0,0-1.234,1.234v1.263a1.235,1.235,0,0,0,1.234,1.234h32.237a1.235,1.235,0,0,0,1.234-1.234v-1.263a1.235,1.235,0,0,0-1.234-1.234Z" transform="translate(-236.041 -255.339)" fill="#78c2ff"/>
        </g>
      </g>
    </g>
    <g id="Group_762" data-name="Group 762" transform="translate(160.663 164.191)">
      <g id="Group_761" data-name="Group 761">
        <g id="Group_760" data-name="Group 760">
          <path id="Path_37087" data-name="Path 37087" d="M269.912,279.576H237.675a1.636,1.636,0,0,1-1.634-1.634v-1.263a1.636,1.636,0,0,1,1.634-1.634h32.237a1.636,1.636,0,0,1,1.634,1.634v1.263A1.636,1.636,0,0,1,269.912,279.576Zm-32.237-4.13a1.235,1.235,0,0,0-1.234,1.234v1.263a1.235,1.235,0,0,0,1.234,1.234h32.237a1.235,1.235,0,0,0,1.234-1.234v-1.263a1.235,1.235,0,0,0-1.234-1.234Z" transform="translate(-236.041 -275.045)" fill="#78c2ff"/>
        </g>
      </g>
    </g>
    <g id="Group_765" data-name="Group 765" transform="translate(155.482 196.784)">
      <g id="Group_764" data-name="Group 764" transform="translate(0)">
        <g id="Group_763" data-name="Group 763">
          <path id="Rectangle_192" data-name="Rectangle 192" d="M2.368,0H27.862a2.368,2.368,0,0,1,2.368,2.368v0a2.368,2.368,0,0,1-2.368,2.368H2.368A2.368,2.368,0,0,1,0,2.368v0A2.368,2.368,0,0,1,2.368,0Z" fill="#e3f2ff"/>
        </g>
      </g>
    </g>
    <g id="Group_768" data-name="Group 768" transform="translate(155.482 189.236)">
      <g id="Group_767" data-name="Group 767" transform="translate(0)">
        <g id="Group_766" data-name="Group 766">
          <path id="Rectangle_193" data-name="Rectangle 193" d="M2.368,0H27.861a2.368,2.368,0,0,1,2.368,2.368v0a2.368,2.368,0,0,1-2.368,2.368H2.367A2.367,2.367,0,0,1,0,2.368v0A2.368,2.368,0,0,1,2.368,0Z" fill="#e3f2ff"/>
        </g>
      </g>
    </g>
    <g id="Group_771" data-name="Group 771" transform="translate(155.989 217.625)">
      <g id="Group_770" data-name="Group 770">
        <g id="Group_769" data-name="Group 769">
          <path id="Rectangle_194" data-name="Rectangle 194" d="M.679,0H6.006a.679.679,0,0,1,.679.679v0a.679.679,0,0,1-.679.679H.678A.678.678,0,0,1,0,.68v0A.679.679,0,0,1,.679,0Z" fill="#e3f2ff"/>
        </g>
      </g>
    </g>
    <g id="Group_774" data-name="Group 774" transform="translate(163.977 217.625)">
      <g id="Group_773" data-name="Group 773">
        <g id="Group_772" data-name="Group 772">
          <path id="Rectangle_195" data-name="Rectangle 195" d="M.678,0H6.006a.679.679,0,0,1,.679.679v0a.678.678,0,0,1-.678.678H.678A.678.678,0,0,1,0,.679v0A.678.678,0,0,1,.678,0Z" fill="#e3f2ff"/>
        </g>
      </g>
    </g>
    <g id="Group_777" data-name="Group 777" transform="translate(172.069 217.625)">
      <g id="Group_776" data-name="Group 776">
        <g id="Group_775" data-name="Group 775">
          <path id="Rectangle_196" data-name="Rectangle 196" d="M.679,0H6.006a.679.679,0,0,1,.679.679v0a.678.678,0,0,1-.678.678H.678A.678.678,0,0,1,0,.679v0A.679.679,0,0,1,.679,0Z" fill="#3d8ed1"/>
        </g>
      </g>
    </g>
    <g id="Group_780" data-name="Group 780" transform="translate(115.256 92.376)" opacity="0.82">
      <g id="Group_779" data-name="Group 779" transform="translate(0)">
        <g id="Group_778" data-name="Group 778">
          <rect id="Rectangle_197" data-name="Rectangle 197" width="44.807" height="32.893" rx="8.485" fill="#e62446"/>
        </g>
      </g>
    </g>
    <g id="Group_783" data-name="Group 783" transform="translate(134.353 96.721)">
      <g id="Group_782" data-name="Group 782" transform="translate(0 0)">
        <g id="Group_781" data-name="Group 781">
          <rect id="Rectangle_198" data-name="Rectangle 198" width="20.956" height="2.913" rx="1.457" fill="#e3f2ff"/>
        </g>
      </g>
    </g>
    <g id="Group_786" data-name="Group 786" transform="translate(134.353 102.376)">
      <g id="Group_785" data-name="Group 785" transform="translate(0 0)">
        <g id="Group_784" data-name="Group 784">
          <rect id="Rectangle_199" data-name="Rectangle 199" width="20.956" height="3.296" rx="1.648" fill="#e3f2ff"/>
        </g>
      </g>
    </g>
    <g id="Group_802" data-name="Group 802" transform="translate(119.48 96.299)">
      <g id="Group_789" data-name="Group 789" transform="translate(0)">
        <g id="Group_788" data-name="Group 788">
          <g id="Group_787" data-name="Group 787">
            <path id="Path_37088" data-name="Path 37088" d="M135.01,113.021a5.477,5.477,0,0,0,7.233-5.119c0-.123,0-.246-.007-.367a5.478,5.478,0,1,0-7.227,5.486Zm-2.35-5.242a4.107,4.107,0,0,1,7.967-1.35v0a4.079,4.079,0,0,1,.239,1.178c0,.091.006.183.005.275a4.107,4.107,0,1,1-8.213-.106Z" transform="translate(-131.289 -102.354)" fill="#e3f2ff"/>
          </g>
        </g>
      </g>
      <g id="Group_792" data-name="Group 792" transform="translate(3.721 7.992)">
        <g id="Group_791" data-name="Group 791">
          <g id="Group_790" data-name="Group 790">
            <path id="Path_37089" data-name="Path 37089" d="M145.757,122.682l1.084.839a5.483,5.483,0,0,1-6.088,1.836l.44-1.3a4.112,4.112,0,0,0,4.564-1.376Z" transform="translate(-140.753 -122.682)" fill="#e3f2ff"/>
          </g>
        </g>
      </g>
      <g id="Group_795" data-name="Group 795" transform="translate(8.725 5.181)">
        <g id="Group_794" data-name="Group 794">
          <g id="Group_793" data-name="Group 793">
            <path id="Path_37090" data-name="Path 37090" d="M154.335,115.606l1.369-.074c.007.121.009.244.007.367a5.451,5.451,0,0,1-1.146,3.284l-1.084-.839a4.086,4.086,0,0,0,.859-2.461C154.341,115.789,154.34,115.7,154.335,115.606Z" transform="translate(-153.481 -115.532)" fill="#e3f2ff"/>
          </g>
        </g>
      </g>
      <g id="Group_798" data-name="Group 798" transform="translate(9.338 3.607)">
        <g id="Group_797" data-name="Group 797">
          <g id="Group_796" data-name="Group 796">
            <path id="Path_37091" data-name="Path 37091" d="M155.282,113.176a4.078,4.078,0,0,0-.239-1.178v0l1.289-.468a5.46,5.46,0,0,1,.32,1.574Z" transform="translate(-155.042 -111.528)" fill="#e3f2ff"/>
          </g>
        </g>
      </g>
      <g id="Group_801" data-name="Group 801" transform="translate(2.183)">
        <g id="Group_800" data-name="Group 800">
          <g id="Group_799" data-name="Group 799">
            <path id="Path_37092" data-name="Path 37092" d="M136.841,103.455a5.479,5.479,0,0,1,8.444,2.505l-1.288.471v0a4.107,4.107,0,0,0-6.352-1.862Z" transform="translate(-136.841 -102.354)" fill="#e3f2ff"/>
          </g>
        </g>
      </g>
    </g>
    <g id="Group_803" data-name="Group 803" transform="translate(119.48 110.202)" opacity="0.66">
      <path id="Path_37093" data-name="Path 37093" d="M131.289,147.714l7.365-5.726,6.394,3.469,8.924-6.761,6.4,3.611,6.751-4.59v10Z" transform="translate(-131.289 -137.718)" fill="#e3f2ff"/>
    </g>
  </g>
</svg>
