<svg xmlns="http://www.w3.org/2000/svg" width="166.638" height="164.189" viewBox="0 0 166.638 164.189">
  <g id="ico01" transform="translate(-664.032 -141.201)">
    <g id="Group_201" data-name="Group 201" transform="translate(664.032 141.201)">
      <g id="Group_53" data-name="Group 53" transform="translate(0 0)">
        <g id="Group_52" data-name="Group 52">
          <g id="Group_51" data-name="Group 51">
            <g id="Group_50" data-name="Group 50">
              <g id="Group_49" data-name="Group 49">
                <g id="Group_48" data-name="Group 48">
                  <g id="Group_45" data-name="Group 45" transform="translate(0.068 0.002)">
                    <path id="Path_36834" data-name="Path 36834" d="M712.273,141.207l-8.113.067a2.016,2.016,0,0,0-1.952,2.076l.012,1.472a2.015,2.015,0,0,1-1.952,2.076l-15.814.13a2.018,2.018,0,0,1-1.988-2.043l-.013-1.471a2.017,2.017,0,0,0-1.988-2.043l-2.853.023-7.1.059a6.384,6.384,0,0,0-6.331,6.439l.883,102.4a6.384,6.384,0,0,0,6.436,6.329l41.761-.344a6.384,6.384,0,0,0,6.331-6.439l-.883-102.4A6.384,6.384,0,0,0,712.273,141.207Z" transform="translate(-664.18 -141.207)" fill="#fff"/>
                  </g>
                  <g id="Group_47" data-name="Group 47">
                    <g id="Group_46" data-name="Group 46">
                      <path id="Path_36835" data-name="Path 36835" d="M712.193,141.2s.073,0,.218,0a4.742,4.742,0,0,1,.648.044,6.014,6.014,0,0,1,2.4.806,6.125,6.125,0,0,1,1.467,1.168,6.379,6.379,0,0,1,1.232,1.9,6.609,6.609,0,0,1,.5,2.587q.014,1.414.03,3.01c.081,8.507.2,20.813.339,36.019s.3,33.314.48,53.419q.034,3.77.068,7.632.008.965.017,1.936a6.826,6.826,0,0,1-.227,1.95,6.443,6.443,0,0,1-.8,1.806,6.894,6.894,0,0,1-1.317,1.487,6.458,6.458,0,0,1-3.674,1.464c-1.338.051-2.668.033-4.012.054l-8.13.068-16.686.139-8.534.07-4.31.036a6.748,6.748,0,0,1-4.168-1.112,6.536,6.536,0,0,1-2.562-3.473,7.023,7.023,0,0,1-.286-2.157q-.01-1.078-.019-2.152-.036-4.3-.073-8.537-.072-8.476-.142-16.69c-.092-10.942-.182-21.5-.267-31.551s-.163-19.609-.238-28.55q-.055-6.706-.106-12.939-.006-.778-.013-1.549c0-.257.017-.518.029-.775.042-.254.06-.513.124-.762a6.53,6.53,0,0,1,1.319-2.717,6.477,6.477,0,0,1,5.185-2.352l5.565-.043,2.677-.021,1.312-.01a2.044,2.044,0,0,1,1.26.34,2.112,2.112,0,0,1,.79,1.019,3.422,3.422,0,0,1,.141,1.26q0,.312,0,.622a4.653,4.653,0,0,0,.025.608,2.022,2.022,0,0,0,.486,1.064,1.882,1.882,0,0,0,.981.6,2.161,2.161,0,0,0,.576.052l.588,0,2.3-.017,8.418-.062,3.711-.027c.293-.008.591.008.87-.019a1.873,1.873,0,0,0,.779-.282,2.018,2.018,0,0,0,.883-1.294,3.548,3.548,0,0,0,.043-.776q0-.387-.005-.763a4.351,4.351,0,0,1,.027-.745,2.17,2.17,0,0,1,.235-.686,2.016,2.016,0,0,1,1.011-.91,3.2,3.2,0,0,1,1.267-.146l4.141-.025,2.547-.012c.573,0,.868,0,.868,0s-.294.009-.868.016l-2.546.03-4.141.043a3.153,3.153,0,0,0-1.245.146,1.957,1.957,0,0,0-.979.886,2.1,2.1,0,0,0-.226.666,4.32,4.32,0,0,0-.024.734q0,.376.008.764a3.636,3.636,0,0,1-.043.79,2.093,2.093,0,0,1-.913,1.342,1.941,1.941,0,0,1-.81.295c-.3.029-.581.013-.878.021l-3.711.034-8.418.076-2.3.021-.588.005a2.258,2.258,0,0,1-.6-.054,1.992,1.992,0,0,1-1.037-.629,2.129,2.129,0,0,1-.513-1.121,4.7,4.7,0,0,1-.027-.622q0-.31-.006-.622a3.314,3.314,0,0,0-.135-1.221,2,2,0,0,0-.748-.963,1.925,1.925,0,0,0-1.194-.319l-1.311.011-2.677.024-5.565.049a6.349,6.349,0,0,0-5.083,2.309,6.4,6.4,0,0,0-1.289,2.661c-.062.243-.079.5-.121.746-.01.253-.027.5-.028.76q.008.771.014,1.549.056,6.225.117,12.939c.08,8.941.165,18.5.254,28.55s.181,20.609.277,31.551q.071,8.206.146,16.69.036,4.238.074,8.536.01,1.074.019,2.152a6.846,6.846,0,0,0,.278,2.107,6.355,6.355,0,0,0,2.491,3.376,6.562,6.562,0,0,0,4.065,1.08l4.31-.035,8.534-.07,16.686-.136,8.13-.066c1.34-.02,2.684,0,4-.052a6.287,6.287,0,0,0,3.576-1.423,6.742,6.742,0,0,0,1.282-1.448,6.3,6.3,0,0,0,.778-1.758,6.652,6.652,0,0,0,.222-1.9q-.008-.971-.016-1.936-.032-3.861-.064-7.632c-.166-20.106-.316-38.213-.441-53.42s-.216-27.512-.282-36.019q-.012-1.595-.022-3.009a6.554,6.554,0,0,0-.488-2.568,6.347,6.347,0,0,0-1.216-1.885,6.108,6.108,0,0,0-1.452-1.167,6.047,6.047,0,0,0-2.386-.819,5.065,5.065,0,0,0-.645-.054C712.266,141.21,712.193,141.2,712.193,141.2Z" transform="translate(-664.032 -141.201)" fill="#263238"/>
                    </g>
                  </g>
                </g>
              </g>
            </g>
          </g>
        </g>
      </g>
      <g id="Group_66" data-name="Group 66" transform="translate(44.773 10.307)">
        <g id="Group_57" data-name="Group 57">
          <g id="Group_56" data-name="Group 56">
            <g id="Group_55" data-name="Group 55">
              <g id="Group_54" data-name="Group 54">
                <path id="Path_36836" data-name="Path 36836" d="M766.575,163.747c0,.027-1.054.068-2.355.09s-2.357.018-2.357-.01,1.054-.068,2.356-.09S766.574,163.719,766.575,163.747Z" transform="translate(-761.862 -163.723)" fill="#263238"/>
              </g>
            </g>
          </g>
        </g>
        <g id="Group_61" data-name="Group 61" transform="translate(0.021 1.206)">
          <g id="Group_60" data-name="Group 60">
            <g id="Group_59" data-name="Group 59">
              <g id="Group_58" data-name="Group 58">
                <path id="Path_36837" data-name="Path 36837" d="M766.62,166.382c0,.027-1.054.068-2.355.09s-2.357.018-2.357-.009,1.054-.068,2.356-.09S766.619,166.354,766.62,166.382Z" transform="translate(-761.907 -166.358)" fill="#263238"/>
              </g>
            </g>
          </g>
        </g>
        <g id="Group_65" data-name="Group 65" transform="translate(0.041 2.412)">
          <g id="Group_64" data-name="Group 64">
            <g id="Group_63" data-name="Group 63">
              <g id="Group_62" data-name="Group 62">
                <path id="Path_36838" data-name="Path 36838" d="M766.665,169.017c0,.027-1.054.068-2.356.09s-2.357.018-2.357-.009,1.054-.068,2.356-.09S766.664,168.989,766.665,169.017Z" transform="translate(-761.952 -168.993)" fill="#263238"/>
              </g>
            </g>
          </g>
        </g>
      </g>
      <g id="Group_70" data-name="Group 70" transform="translate(6.583 10.536)">
        <g id="Group_69" data-name="Group 69">
          <g id="Group_68" data-name="Group 68">
            <g id="Group_67" data-name="Group 67">
              <path id="Path_36839" data-name="Path 36839" d="M678.483,168.184a.8.8,0,0,1,.1-.007l.272-.011,1.006-.032-.028.028-.018-.73c0-.136-.014-.264,0-.42a.387.387,0,0,1,.335-.313c.162,0,.3-.013.481-.006a.391.391,0,0,1,.334.386c.007.34.014.7.022,1.064l-.047-.045,1.27-.024-.048.049c-.009-.511-.018-1.04-.028-1.582,0-.135,0-.27-.007-.4a.412.412,0,0,0-.181-.3l-.56-.542-.54-.524-.261-.254c-.09-.085-.161-.173-.265-.194a.342.342,0,0,0-.291.058c-.076.066-.157.158-.234.235l-.451.463c-.284.3-.58.575-.795.834a.9.9,0,0,0-.059.474q0,.236,0,.448,0,.411,0,.72c0,.184,0,.336,0,.461,0,.107,0,.164,0,.166a1.13,1.13,0,0,1-.01-.152c0-.123-.01-.272-.017-.454q-.01-.312-.023-.726c0-.143-.008-.3-.012-.456,0-.081,0-.164-.006-.25a.531.531,0,0,1,.068-.266c.232-.29.51-.547.8-.856l.448-.467c.081-.081.146-.161.243-.245a.431.431,0,0,1,.367-.076.683.683,0,0,1,.307.216l.263.253.542.522.561.541a1.109,1.109,0,0,1,.143.152.413.413,0,0,1,.068.214q0,.2.007.4c.009.542.017,1.07.026,1.582v.048h-.049l-1.27.019h-.046v-.046c-.005-.369-.01-.724-.015-1.065a.307.307,0,0,0-.26-.306c-.146-.006-.318,0-.46,0a.311.311,0,0,0-.271.249c-.012.128,0,.276,0,.406q0,.395.006.73v.028h-.028l-1.023,0-.266,0A.509.509,0,0,1,678.483,168.184Z" transform="translate(-678.415 -164.223)" fill="#263238"/>
            </g>
          </g>
        </g>
      </g>
      <g id="Group_97" data-name="Group 97" transform="translate(4.761 20.471)">
        <g id="Group_78" data-name="Group 78">
          <g id="Group_73" data-name="Group 73" transform="translate(0.052 0.024)">
            <g id="Group_72" data-name="Group 72" transform="translate(0 0)">
              <g id="Group_71" data-name="Group 71">
                <rect id="Rectangle_132" data-name="Rectangle 132" width="44.518" height="8.098" rx="4.049" transform="translate(0 0.393) rotate(-0.505)" fill="#f5f5f5"/>
              </g>
            </g>
          </g>
          <g id="Group_77" data-name="Group 77">
            <g id="Group_76" data-name="Group 76">
              <g id="Group_75" data-name="Group 75">
                <g id="Group_74" data-name="Group 74">
                  <path id="Path_36840" data-name="Path 36840" d="M715.659,194.083s.086-.011.255-.023a3.688,3.688,0,0,0,.733-.15,3.5,3.5,0,0,0,1.066-.573,3.348,3.348,0,0,0,1-1.3,3.271,3.271,0,0,0,.259-.946A8.772,8.772,0,0,0,719,190a7.383,7.383,0,0,0-.063-1.186,3.369,3.369,0,0,0-2.713-2.724,9.318,9.318,0,0,0-1.548-.045l-1.645.017L677.9,186.4a3.337,3.337,0,0,0-3.293,3.084c-.025.4,0,.83,0,1.241a3.9,3.9,0,0,0,.137,1.2,3.359,3.359,0,0,0,1.4,1.874,3.206,3.206,0,0,0,1.082.45,4.921,4.921,0,0,0,1.172.078l2.358-.02,4.565-.038,15.792-.121,10.646-.068,2.895-.01.753,0c.17,0,.257.006.257.006s-.087.006-.257.011l-.752.015-2.894.041-10.646.12-15.792.157-4.565.043-2.358.022a5.075,5.075,0,0,1-1.208-.081,3.368,3.368,0,0,1-1.135-.472,3.519,3.519,0,0,1-1.465-1.965,4.051,4.051,0,0,1-.144-1.248c0-.417-.022-.824,0-1.254a3.5,3.5,0,0,1,3.456-3.238l35.126-.285,1.645-.012a9.38,9.38,0,0,1,1.568.053,3.459,3.459,0,0,1,2.778,2.813,7.3,7.3,0,0,1,.057,1.2,8.533,8.533,0,0,1-.029,1.1,3.3,3.3,0,0,1-.272.963,3.379,3.379,0,0,1-1.033,1.309,3.506,3.506,0,0,1-1.086.566,3.451,3.451,0,0,1-.742.135C715.746,194.084,715.659,194.083,715.659,194.083Z" transform="translate(-674.434 -185.932)" fill="#263238"/>
                </g>
              </g>
            </g>
          </g>
        </g>
        <g id="Group_87" data-name="Group 87" transform="translate(38.858 2.379)">
          <g id="Group_82" data-name="Group 82">
            <g id="Group_81" data-name="Group 81">
              <g id="Group_80" data-name="Group 80">
                <g id="Group_79" data-name="Group 79">
                  <path id="Path_36841" data-name="Path 36841" d="M762.356,192.655c-.016,0-.016-.13-.08-.35a1.463,1.463,0,0,0-.545-.764,1.4,1.4,0,1,0,.02,2.238,1.464,1.464,0,0,0,.53-.774c.061-.22.058-.351.074-.351s.01.032.013.094a1.077,1.077,0,0,1-.024.271,1.459,1.459,0,0,1-.521.851,1.522,1.522,0,0,1-1.447.25,1.538,1.538,0,0,1-.026-2.9,1.522,1.522,0,0,1,1.451.224,1.46,1.46,0,0,1,.536.842,1.076,1.076,0,0,1,.029.271C762.365,192.622,762.362,192.655,762.356,192.655Z" transform="translate(-759.339 -191.13)" fill="#263238"/>
                </g>
              </g>
            </g>
          </g>
          <g id="Group_86" data-name="Group 86" transform="translate(2.517 2.633)">
            <g id="Group_85" data-name="Group 85">
              <g id="Group_84" data-name="Group 84">
                <g id="Group_83" data-name="Group 83">
                  <path id="Path_36842" data-name="Path 36842" d="M766.168,198.3a5.694,5.694,0,0,1-1.326-1.411,5.693,5.693,0,0,1,1.326,1.411Z" transform="translate(-764.839 -196.884)" fill="#263238"/>
                </g>
              </g>
            </g>
          </g>
        </g>
        <g id="Group_96" data-name="Group 96" transform="translate(5.294 3.386)">
          <g id="Group_89" data-name="Group 89">
            <g id="Group_88" data-name="Group 88">
              <path id="Path_36843" data-name="Path 36843" d="M686.8,193.547l-.794.007,0-.206,1.827-.016,0,.206-.794.007.018,2.053-.239,0Z" transform="translate(-686.002 -193.331)" fill="#e0e0e0"/>
            </g>
          </g>
          <g id="Group_91" data-name="Group 91" transform="translate(1.823 0.541)">
            <g id="Group_90" data-name="Group 90">
              <path id="Path_36844" data-name="Path 36844" d="M691.636,195.44l-1.421.012a.629.629,0,0,0,.674.585.669.669,0,0,0,.518-.227l.13.147a.9.9,0,0,1-1.552-.574.819.819,0,0,1,.822-.87.809.809,0,0,1,.831.855C691.639,195.388,691.636,195.414,691.636,195.44Zm-1.422-.159,1.2-.011a.6.6,0,0,0-1.2.011Z" transform="translate(-689.986 -194.514)" fill="#e0e0e0"/>
            </g>
          </g>
          <g id="Group_93" data-name="Group 93" transform="translate(3.645 0.532)">
            <g id="Group_92" data-name="Group 92">
              <path id="Path_36845" data-name="Path 36845" d="M695.306,196.193l-.545-.706-.536.715-.258,0,.664-.878-.647-.821.258,0,.516.66.5-.67.252,0-.632.832.686.866Z" transform="translate(-693.966 -194.493)" fill="#e0e0e0"/>
            </g>
          </g>
          <g id="Group_95" data-name="Group 95" transform="translate(5.347 0.155)">
            <g id="Group_94" data-name="Group 94">
              <path id="Path_36846" data-name="Path 36846" d="M698.859,195.63a.544.544,0,0,1-.357.122.449.449,0,0,1-.5-.489l-.009-1.027-.3,0,0-.194.3,0,0-.372.229,0,0,.371.516,0,0,.194-.516,0,.009,1.014a.272.272,0,0,0,.3.308.376.376,0,0,0,.251-.09Z" transform="translate(-697.686 -193.669)" fill="#e0e0e0"/>
            </g>
          </g>
        </g>
      </g>
      <g id="Group_100" data-name="Group 100" transform="translate(6.821 35.612)">
        <g id="Group_99" data-name="Group 99" transform="translate(0 0)">
          <g id="Group_98" data-name="Group 98">
            <rect id="Rectangle_133" data-name="Rectangle 133" width="9.744" height="9.744" transform="translate(0 0.086) rotate(-0.505)" fill="#e62446"/>
          </g>
        </g>
      </g>
      <g id="Group_117" data-name="Group 117" transform="translate(20.764 36.388)">
        <g id="Group_104" data-name="Group 104">
          <g id="Group_103" data-name="Group 103">
            <g id="Group_102" data-name="Group 102">
              <g id="Group_101" data-name="Group 101">
                <path id="Path_36847" data-name="Path 36847" d="M723.956,220.75c0,.046-3.258.112-7.276.147s-7.277.027-7.278-.019,3.257-.111,7.276-.147S723.955,220.7,723.956,220.75Z" transform="translate(-709.402 -220.709)" fill="#e62446"/>
              </g>
            </g>
          </g>
        </g>
        <g id="Group_108" data-name="Group 108" transform="translate(0.027 2.899)">
          <g id="Group_107" data-name="Group 107">
            <g id="Group_106" data-name="Group 106">
              <g id="Group_105" data-name="Group 105">
                <path id="Path_36848" data-name="Path 36848" d="M735.618,227.069c0,.046-5.855.135-13.077.2s-13.08.078-13.081.033,5.854-.135,13.079-.2S735.618,227.024,735.618,227.069Z" transform="translate(-709.46 -227.043)" fill="#263238"/>
              </g>
            </g>
          </g>
        </g>
        <g id="Group_112" data-name="Group 112" transform="translate(0.045 5.034)">
          <g id="Group_111" data-name="Group 111">
            <g id="Group_110" data-name="Group 110">
              <g id="Group_109" data-name="Group 109">
                <path id="Path_36849" data-name="Path 36849" d="M735.351,231.736c0,.045-5.787.134-12.924.2s-12.926.077-12.926.031,5.785-.134,12.925-.2S735.351,231.69,735.351,231.736Z" transform="translate(-709.501 -231.709)" fill="#263238"/>
              </g>
            </g>
          </g>
        </g>
        <g id="Group_116" data-name="Group 116" transform="translate(0.063 7.15)">
          <g id="Group_115" data-name="Group 115">
            <g id="Group_114" data-name="Group 114">
              <g id="Group_113" data-name="Group 113">
                <path id="Path_36850" data-name="Path 36850" d="M724.8,236.371c0,.046-3.416.113-7.63.15s-7.632.03-7.633-.016,3.416-.113,7.631-.15S724.8,236.325,724.8,236.371Z" transform="translate(-709.54 -236.331)" fill="#263238"/>
              </g>
            </g>
          </g>
        </g>
      </g>
      <g id="Group_120" data-name="Group 120" transform="translate(6.963 51.779)">
        <g id="Group_119" data-name="Group 119" transform="translate(0 0)">
          <g id="Group_118" data-name="Group 118">
            <rect id="Rectangle_134" data-name="Rectangle 134" width="9.744" height="9.744" transform="translate(0 0.086) rotate(-0.505)" fill="#e62446"/>
          </g>
        </g>
      </g>
      <g id="Group_137" data-name="Group 137" transform="translate(20.908 52.622)">
        <g id="Group_124" data-name="Group 124">
          <g id="Group_123" data-name="Group 123">
            <g id="Group_122" data-name="Group 122">
              <g id="Group_121" data-name="Group 121">
                <path id="Path_36851" data-name="Path 36851" d="M724.269,256.221c0,.046-3.258.112-7.276.147s-7.277.027-7.278-.019,3.257-.112,7.276-.147S724.268,256.175,724.269,256.221Z" transform="translate(-709.715 -256.18)" fill="#e62446"/>
              </g>
            </g>
          </g>
        </g>
        <g id="Group_128" data-name="Group 128" transform="translate(0.027 2.898)">
          <g id="Group_127" data-name="Group 127">
            <g id="Group_126" data-name="Group 126">
              <g id="Group_125" data-name="Group 125">
                <path id="Path_36852" data-name="Path 36852" d="M735.931,262.54c0,.046-5.855.135-13.078.2s-13.08.079-13.08.033,5.854-.134,13.079-.2S735.93,262.494,735.931,262.54Z" transform="translate(-709.773 -262.513)" fill="#263238"/>
              </g>
            </g>
          </g>
        </g>
        <g id="Group_132" data-name="Group 132" transform="translate(0.045 5.034)">
          <g id="Group_131" data-name="Group 131">
            <g id="Group_130" data-name="Group 130">
              <g id="Group_129" data-name="Group 129">
                <path id="Path_36853" data-name="Path 36853" d="M735.664,267.206c0,.046-5.787.134-12.924.2s-12.926.077-12.926.031,5.785-.134,12.925-.2S735.664,267.16,735.664,267.206Z" transform="translate(-709.814 -267.179)" fill="#263238"/>
              </g>
            </g>
          </g>
        </g>
        <g id="Group_136" data-name="Group 136" transform="translate(0.063 7.15)">
          <g id="Group_135" data-name="Group 135">
            <g id="Group_134" data-name="Group 134">
              <g id="Group_133" data-name="Group 133">
                <path id="Path_36854" data-name="Path 36854" d="M725.116,271.841c0,.046-3.416.113-7.63.151s-7.632.03-7.632-.016,3.416-.113,7.631-.151S725.115,271.8,725.116,271.841Z" transform="translate(-709.853 -271.802)" fill="#263238"/>
              </g>
            </g>
          </g>
        </g>
      </g>
      <g id="Group_140" data-name="Group 140" transform="translate(7.107 68.013)">
        <g id="Group_139" data-name="Group 139" transform="translate(0 0)">
          <g id="Group_138" data-name="Group 138">
            <rect id="Rectangle_135" data-name="Rectangle 135" width="9.744" height="9.744" transform="translate(0 0.086) rotate(-0.505)" fill="#455a64"/>
          </g>
        </g>
      </g>
      <g id="Group_157" data-name="Group 157" transform="translate(21.051 68.855)">
        <g id="Group_144" data-name="Group 144">
          <g id="Group_143" data-name="Group 143">
            <g id="Group_142" data-name="Group 142">
              <g id="Group_141" data-name="Group 141">
                <path id="Path_36855" data-name="Path 36855" d="M724.581,291.692c0,.046-3.257.111-7.276.147s-7.277.027-7.278-.019,3.257-.112,7.276-.147S724.581,291.646,724.581,291.692Z" transform="translate(-710.028 -291.651)" fill="#e62446"/>
              </g>
            </g>
          </g>
        </g>
        <g id="Group_148" data-name="Group 148" transform="translate(0.027 2.898)">
          <g id="Group_147" data-name="Group 147">
            <g id="Group_146" data-name="Group 146">
              <g id="Group_145" data-name="Group 145">
                <path id="Path_36856" data-name="Path 36856" d="M736.244,298.01c0,.046-5.855.135-13.078.2s-13.08.078-13.08.032,5.854-.134,13.079-.2S736.243,297.965,736.244,298.01Z" transform="translate(-710.086 -297.984)" fill="#263238"/>
              </g>
            </g>
          </g>
        </g>
        <g id="Group_152" data-name="Group 152" transform="translate(0.045 5.034)">
          <g id="Group_151" data-name="Group 151">
            <g id="Group_150" data-name="Group 150">
              <g id="Group_149" data-name="Group 149">
                <path id="Path_36857" data-name="Path 36857" d="M735.977,302.677c0,.046-5.787.134-12.924.2s-12.926.077-12.926.031,5.785-.134,12.925-.2S735.977,302.631,735.977,302.677Z" transform="translate(-710.127 -302.65)" fill="#263238"/>
              </g>
            </g>
          </g>
        </g>
        <g id="Group_156" data-name="Group 156" transform="translate(0.063 7.15)">
          <g id="Group_155" data-name="Group 155">
            <g id="Group_154" data-name="Group 154">
              <g id="Group_153" data-name="Group 153">
                <path id="Path_36858" data-name="Path 36858" d="M725.429,307.312c0,.046-3.416.113-7.63.15s-7.632.03-7.632-.016,3.415-.113,7.631-.15S725.428,307.267,725.429,307.312Z" transform="translate(-710.166 -307.273)" fill="#263238"/>
              </g>
            </g>
          </g>
        </g>
      </g>
      <g id="Group_160" data-name="Group 160" transform="translate(7.25 84.247)">
        <g id="Group_159" data-name="Group 159" transform="translate(0 0)">
          <g id="Group_158" data-name="Group 158">
            <rect id="Rectangle_136" data-name="Rectangle 136" width="9.744" height="9.744" transform="translate(0 0.086) rotate(-0.505)" fill="#e62446"/>
          </g>
        </g>
      </g>
      <g id="Group_177" data-name="Group 177" transform="translate(21.194 85.089)">
        <g id="Group_164" data-name="Group 164">
          <g id="Group_163" data-name="Group 163">
            <g id="Group_162" data-name="Group 162">
              <g id="Group_161" data-name="Group 161">
                <path id="Path_36859" data-name="Path 36859" d="M724.894,327.162c0,.046-3.257.112-7.276.147s-7.277.027-7.278-.019,3.257-.112,7.276-.147S724.894,327.117,724.894,327.162Z" transform="translate(-710.341 -327.122)" fill="#455a64"/>
              </g>
            </g>
          </g>
        </g>
        <g id="Group_168" data-name="Group 168" transform="translate(0.026 2.898)">
          <g id="Group_167" data-name="Group 167">
            <g id="Group_166" data-name="Group 166">
              <g id="Group_165" data-name="Group 165">
                <path id="Path_36860" data-name="Path 36860" d="M736.556,333.481c0,.046-5.855.135-13.078.2s-13.08.078-13.081.033,5.854-.135,13.079-.2S736.556,333.436,736.556,333.481Z" transform="translate(-710.398 -333.455)" fill="#263238"/>
              </g>
            </g>
          </g>
        </g>
        <g id="Group_172" data-name="Group 172" transform="translate(0.045 5.034)">
          <g id="Group_171" data-name="Group 171">
            <g id="Group_170" data-name="Group 170">
              <g id="Group_169" data-name="Group 169">
                <path id="Path_36861" data-name="Path 36861" d="M736.289,338.148c0,.046-5.786.134-12.924.2s-12.926.077-12.927.031,5.785-.134,12.925-.2S736.289,338.1,736.289,338.148Z" transform="translate(-710.439 -338.121)" fill="#263238"/>
              </g>
            </g>
          </g>
        </g>
        <g id="Group_176" data-name="Group 176" transform="translate(0.063 7.15)">
          <g id="Group_175" data-name="Group 175">
            <g id="Group_174" data-name="Group 174">
              <g id="Group_173" data-name="Group 173">
                <path id="Path_36862" data-name="Path 36862" d="M725.742,342.783c0,.046-3.416.113-7.631.15s-7.632.03-7.632-.016,3.415-.113,7.631-.15S725.741,342.738,725.742,342.783Z" transform="translate(-710.479 -342.744)" fill="#263238"/>
              </g>
            </g>
          </g>
        </g>
      </g>
      <g id="Group_180" data-name="Group 180" transform="translate(7.393 100.481)">
        <g id="Group_179" data-name="Group 179" transform="translate(0 0)">
          <g id="Group_178" data-name="Group 178">
            <rect id="Rectangle_137" data-name="Rectangle 137" width="9.744" height="9.744" transform="matrix(1, -0.009, 0.009, 1, 0, 0.086)" fill="#e0e0e0"/>
          </g>
        </g>
      </g>
      <g id="Group_197" data-name="Group 197" transform="translate(21.337 101.323)">
        <g id="Group_184" data-name="Group 184">
          <g id="Group_183" data-name="Group 183">
            <g id="Group_182" data-name="Group 182">
              <g id="Group_181" data-name="Group 181">
                <path id="Path_36863" data-name="Path 36863" d="M725.207,362.633c0,.046-3.258.112-7.276.147s-7.278.027-7.278-.019,3.257-.112,7.276-.147S725.207,362.587,725.207,362.633Z" transform="translate(-710.654 -362.592)" fill="#e0e0e0"/>
              </g>
            </g>
          </g>
        </g>
        <g id="Group_188" data-name="Group 188" transform="translate(0.026 2.899)">
          <g id="Group_187" data-name="Group 187">
            <g id="Group_186" data-name="Group 186">
              <g id="Group_185" data-name="Group 185">
                <path id="Path_36864" data-name="Path 36864" d="M736.869,368.952c0,.046-5.856.135-13.078.2s-13.08.078-13.08.033,5.854-.135,13.079-.2S736.869,368.907,736.869,368.952Z" transform="translate(-710.711 -368.926)" fill="#ebebeb"/>
              </g>
            </g>
          </g>
        </g>
        <g id="Group_192" data-name="Group 192" transform="translate(0.045 5.034)">
          <g id="Group_191" data-name="Group 191">
            <g id="Group_190" data-name="Group 190">
              <g id="Group_189" data-name="Group 189">
                <path id="Path_36865" data-name="Path 36865" d="M736.6,373.619c0,.046-5.786.134-12.924.2s-12.926.077-12.927.031,5.785-.134,12.925-.2S736.6,373.573,736.6,373.619Z" transform="translate(-710.752 -373.592)" fill="#ebebeb"/>
              </g>
            </g>
          </g>
        </g>
        <g id="Group_196" data-name="Group 196" transform="translate(0.063 7.15)">
          <g id="Group_195" data-name="Group 195">
            <g id="Group_194" data-name="Group 194">
              <g id="Group_193" data-name="Group 193">
                <path id="Path_36866" data-name="Path 36866" d="M726.054,378.254c0,.046-3.416.113-7.63.15s-7.632.03-7.632-.016,3.416-.113,7.631-.15S726.053,378.208,726.054,378.254Z" transform="translate(-710.791 -378.215)" fill="#ebebeb"/>
              </g>
            </g>
          </g>
        </g>
      </g>
      <g id="Group_200" data-name="Group 200" transform="translate(7.25 84.247)" opacity="0.3">
        <g id="Group_199" data-name="Group 199" transform="translate(0 0)">
          <g id="Group_198" data-name="Group 198">
            <rect id="Rectangle_138" data-name="Rectangle 138" width="9.744" height="9.744" transform="translate(0 0.086) rotate(-0.505)"/>
          </g>
        </g>
      </g>
    </g>
    <g id="Group_376" data-name="Group 376" transform="translate(728.462 173.301)">
      <g id="Group_248" data-name="Group 248" transform="translate(65.156 79.012)">
        <g id="Group_206" data-name="Group 206">
          <g id="Group_205" data-name="Group 205">
            <g id="Group_204" data-name="Group 204">
              <g id="Group_203" data-name="Group 203">
                <path id="Path_36867" data-name="Path 36867" d="M979.848,384.255l-5.416-.038a1.343,1.343,0,0,0-1.324,1.362l-.007.979a1.343,1.343,0,0,1-1.324,1.362l-10.556-.074a1.345,1.345,0,0,1-1.306-1.38l.007-.98a1.344,1.344,0,0,0-1.306-1.38l-1.9-.014-4.74-.033a4.255,4.255,0,0,0-4.291,4.221l-.394,43.927a4.255,4.255,0,0,0,4.231,4.278l27.877.195a4.255,4.255,0,0,0,4.291-4.221l.394-43.928A4.255,4.255,0,0,0,979.848,384.255Z" transform="translate(-947.237 -384.024)" fill="#fff"/>
                <g id="Group_202" data-name="Group 202">
                  <path id="Path_36868" data-name="Path 36868" d="M979.79,384.212l.453.023a4.476,4.476,0,0,1,1.279.349,4.287,4.287,0,0,1,2.516,4.12c-.037,4.446-.089,10.868-.154,18.8-.034,3.97-.071,8.318-.11,12.984q-.031,3.5-.063,7.234-.016,1.865-.033,3.783a7.9,7.9,0,0,1-.142,1.929,4.282,4.282,0,0,1-.9,1.739,4.449,4.449,0,0,1-1.6,1.17,4.69,4.69,0,0,1-1.978.335l-4.076-.028-8.408-.058-8.71-.06-4.455-.031c-.749-.012-1.495,0-2.253-.031a4.286,4.286,0,0,1-3.582-2.493,4.645,4.645,0,0,1-.391-2.214q.021-2.243.04-4.456.04-4.425.079-8.713c.053-5.712.1-11.221.151-16.47q.036-3.936.071-7.67.017-1.865.034-3.674.008-.9.016-1.795a7.154,7.154,0,0,1,.14-1.763,4.307,4.307,0,0,1,2.047-2.684,4.263,4.263,0,0,1,1.592-.525,16.368,16.368,0,0,1,1.645-.028l3.184.024,1.541.012.758.005a1.362,1.362,0,0,1,.733.184,1.425,1.425,0,0,1,.682,1.263q0,.363-.005.722a1.8,1.8,0,0,0,.076.693,1.3,1.3,0,0,0,.978.859c.446.045.909.018,1.353.031l5.05.039,4.394.033a1.321,1.321,0,0,0,1.271-1.194c.018-.3.009-.607.015-.9a1.71,1.71,0,0,1,.147-.842,1.339,1.339,0,0,1,1.291-.761l1.379.012,2.161.02,1.783.022-1.783,0-2.162-.011-1.379-.007a1.3,1.3,0,0,0-1.257.744,1.669,1.669,0,0,0-.141.826c-.005.294,0,.592-.013.9a1.364,1.364,0,0,1-1.311,1.234l-4.395-.026-5.051-.032c-.449-.012-.9.016-1.364-.03a1.361,1.361,0,0,1-1.027-.9,1.854,1.854,0,0,1-.081-.714q0-.359,0-.722a1.357,1.357,0,0,0-.651-1.2,1.286,1.286,0,0,0-.7-.174l-.757-.005-1.541-.01L953,384.061a16.235,16.235,0,0,0-1.635.029,4.215,4.215,0,0,0-3.572,3.153,7.074,7.074,0,0,0-.136,1.745q-.008.89-.016,1.794-.016,1.809-.032,3.674-.032,3.73-.067,7.67c-.046,5.249-.095,10.759-.145,16.471q-.039,4.284-.078,8.713-.019,2.213-.04,4.457a4.557,4.557,0,0,0,.382,2.173,4.192,4.192,0,0,0,3.5,2.438c.745.035,1.5.019,2.247.031l4.455.031,8.711.062,8.407.06,4.077.029a4.6,4.6,0,0,0,1.942-.327,4.356,4.356,0,0,0,1.569-1.145,4.2,4.2,0,0,0,.881-1.7,7.815,7.815,0,0,0,.14-1.908q.018-1.918.035-3.783.034-3.729.067-7.233c.044-4.667.085-9.015.122-12.984.078-7.935.141-14.357.184-18.8a4.268,4.268,0,0,0-2.487-4.1,4.539,4.539,0,0,0-1.273-.357Z" transform="translate(-947.18 -383.981)" fill="#263238"/>
                </g>
              </g>
            </g>
          </g>
        </g>
        <rect id="Rectangle_139" data-name="Rectangle 139" width="29.456" height="20.453" transform="translate(3.75 12.723) rotate(0.137)" fill="#e62446"/>
        <g id="Group_210" data-name="Group 210" transform="translate(13.421 17.914)">
          <g id="Group_208" data-name="Group 208" transform="translate(0 0)">
            <g id="Group_207" data-name="Group 207">
              <circle id="Ellipse_31" data-name="Ellipse 31" cx="4.275" cy="4.275" r="4.275" transform="translate(0 1.68) rotate(-11.329)" fill="#fff"/>
            </g>
          </g>
          <g id="Group_209" data-name="Group 209" transform="translate(3.975 3.103)">
            <path id="Path_36869" data-name="Path 36869" d="M985.2,431.83l0-1.926,1.666.967,1.666.967-1.67.959-1.67.959Z" transform="translate(-985.191 -429.904)" fill="#e62446"/>
          </g>
        </g>
        <g id="Group_244" data-name="Group 244" transform="translate(3.697 34.208)">
          <g id="Group_237" data-name="Group 237" transform="translate(0.223 1.337)">
            <g id="Group_217" data-name="Group 217" transform="translate(2.96 0.065)">
              <g id="Group_212" data-name="Group 212" transform="translate(0 0.265)">
                <g id="Group_211" data-name="Group 211">
                  <path id="Path_36870" data-name="Path 36870" d="M962.214,462.736v-.33a.038.038,0,0,1,.058-.033l.285.165.285.166a.038.038,0,0,1,0,.066l-.286.164-.286.164a.038.038,0,0,1-.058-.033Z" transform="translate(-962.213 -462.369)" fill="#263238"/>
                </g>
              </g>
              <g id="Group_214" data-name="Group 214" transform="translate(2.388)">
                <g id="Group_213" data-name="Group 213">
                  <path id="Path_36871" data-name="Path 36871" d="M967.719,462.17h-.249a.038.038,0,0,0-.038.038v.439a.039.039,0,0,0,.038.038h.249l.382.383v-1.281Z" transform="translate(-967.431 -461.789)" fill="#263238"/>
                </g>
              </g>
              <g id="Group_216" data-name="Group 216" transform="translate(0.794 0.239)">
                <g id="Group_215" data-name="Group 215">
                  <path id="Path_36872" data-name="Path 36872" d="M964.013,463.1h0a.066.066,0,0,1-.066-.066l0-.66a.065.065,0,0,1,.066-.065h0a.065.065,0,0,1,.065.065v.661A.066.066,0,0,1,964.013,463.1Z" transform="translate(-963.947 -462.312)" fill="#263238"/>
                </g>
              </g>
            </g>
            <g id="Group_219" data-name="Group 219" transform="translate(6.171 0.305)">
              <g id="Group_218" data-name="Group 218">
                <path id="Path_36873" data-name="Path 36873" d="M969.232,462.314v.8a.429.429,0,0,0,0-.8Z" transform="translate(-969.23 -462.314)" fill="#263238"/>
              </g>
            </g>
            <g id="Group_222" data-name="Group 222" transform="translate(6.17)">
              <g id="Group_221" data-name="Group 221">
                <g id="Group_220" data-name="Group 220">
                  <path id="Path_36874" data-name="Path 36874" d="M969.231,461.647v.167a.56.56,0,0,1,0,1.077v.167a.722.722,0,0,0,0-1.411Z" transform="translate(-969.228 -461.647)" fill="#263238"/>
                </g>
              </g>
            </g>
            <g id="Group_232" data-name="Group 232" transform="translate(7.953 0.295)">
              <g id="Group_223" data-name="Group 223" transform="translate(0 0.151)">
                <path id="Path_36875" data-name="Path 36875" d="M973.409,462.623l0,.776h-.11l0-.68h-.175v-.1Z" transform="translate(-973.124 -462.622)" fill="#263238"/>
              </g>
              <g id="Group_224" data-name="Group 224" transform="translate(0.451 0.336)">
                <path id="Path_36876" data-name="Path 36876" d="M974.11,463.1a.074.074,0,1,1,.075.076A.075.075,0,0,1,974.11,463.1Zm0,.448a.074.074,0,0,1,.075-.076.073.073,0,0,1,.073.076.074.074,0,1,1-.148,0Z" transform="translate(-974.109 -463.025)" fill="#263238"/>
              </g>
              <g id="Group_225" data-name="Group 225" transform="translate(0.705 0.145)">
                <path id="Path_36877" data-name="Path 36877" d="M974.665,463c0-.253.136-.4.318-.4s.315.145.315.4-.136.4-.317.4S974.664,463.257,974.665,463Zm.522,0c0-.2-.084-.3-.2-.3s-.206.1-.207.3.083.3.206.3S975.187,463.2,975.187,463.005Z" transform="translate(-974.665 -462.608)" fill="#263238"/>
              </g>
              <g id="Group_226" data-name="Group 226" transform="translate(1.397 0.155)">
                <path id="Path_36878" data-name="Path 36878" d="M976.462,462.63l0,.776h-.11l0-.68h-.175v-.1Z" transform="translate(-976.177 -462.629)" fill="#263238"/>
              </g>
              <g id="Group_227" data-name="Group 227" transform="translate(2.063)">
                <path id="Path_36879" data-name="Path 36879" d="M978,462.291h.1l-.368,1.043h-.1Z" transform="translate(-977.632 -462.291)" fill="#263238"/>
              </g>
              <g id="Group_228" data-name="Group 228" transform="translate(2.832 0.15)">
                <path id="Path_36880" data-name="Path 36880" d="M979.928,463.185c0,.141-.12.228-.31.227s-.307-.088-.306-.229a.192.192,0,0,1,.137-.187.176.176,0,0,1-.109-.167c0-.13.113-.211.28-.21s.281.081.281.211a.177.177,0,0,1-.11.167A.193.193,0,0,1,979.928,463.185Zm-.111,0c0-.085-.075-.139-.2-.139s-.2.053-.2.138.073.142.2.142S979.817,463.269,979.817,463.181Zm-.367-.348c0,.076.063.124.169.124s.173-.047.173-.124-.068-.125-.172-.126S979.45,462.756,979.45,462.834Z" transform="translate(-979.312 -462.619)" fill="#263238"/>
              </g>
              <g id="Group_229" data-name="Group 229" transform="translate(3.547 0.343)">
                <path id="Path_36881" data-name="Path 36881" d="M980.876,463.116a.074.074,0,0,1,.075-.075.073.073,0,0,1,.073.076.074.074,0,0,1-.074.076A.076.076,0,0,1,980.876,463.116Zm0,.448a.074.074,0,0,1,.075-.076.073.073,0,0,1,.073.076.074.074,0,1,1-.148,0Z" transform="translate(-980.875 -463.041)" fill="#263238"/>
              </g>
              <g id="Group_230" data-name="Group 230" transform="translate(3.802 0.152)">
                <path id="Path_36882" data-name="Path 36882" d="M981.431,463.02c0-.253.136-.4.318-.4s.315.145.315.4-.136.4-.317.4S981.43,463.273,981.431,463.02Zm.522,0c0-.2-.084-.3-.2-.3s-.206.1-.207.3.084.3.205.3S981.953,463.22,981.953,463.022Z" transform="translate(-981.431 -462.624)" fill="#263238"/>
              </g>
              <g id="Group_231" data-name="Group 231" transform="translate(4.54 0.154)">
                <path id="Path_36883" data-name="Path 36883" d="M983.045,463.024c0-.253.136-.4.318-.4s.316.145.315.4-.136.4-.317.4S983.045,463.277,983.045,463.024Zm.522,0c0-.2-.083-.3-.2-.3s-.206.1-.207.3.083.3.205.3S983.567,463.224,983.567,463.026Z" transform="translate(-983.045 -462.628)" fill="#263238"/>
              </g>
            </g>
            <g id="Group_234" data-name="Group 234" transform="translate(0 0.147)">
              <g id="Group_233" data-name="Group 233">
                <path id="Path_36884" data-name="Path 36884" d="M955.877,462.913h0a.131.131,0,0,1-.131-.131l0-.683a.131.131,0,0,1,.131-.13h0a.131.131,0,0,1,.13.131l0,.683A.131.131,0,0,1,955.877,462.913Z" transform="translate(-955.746 -461.968)" fill="#263238"/>
              </g>
            </g>
            <g id="Group_236" data-name="Group 236" transform="translate(0.594 0.148)">
              <g id="Group_235" data-name="Group 235">
                <path id="Path_36885" data-name="Path 36885" d="M957.173,462.916h0a.13.13,0,0,1-.13-.131V462.1a.131.131,0,0,1,.131-.13h0a.131.131,0,0,1,.13.131l0,.683A.13.13,0,0,1,957.173,462.916Z" transform="translate(-957.043 -461.971)" fill="#263238"/>
              </g>
            </g>
          </g>
          <g id="Group_239" data-name="Group 239" transform="translate(0 0.228)">
            <g id="Group_238" data-name="Group 238">
              <path id="Path_36886" data-name="Path 36886" d="M984.573,459.853l-29.037-.07a.279.279,0,0,1-.278-.28h0a.279.279,0,0,1,.28-.279l29.037.07a.279.279,0,0,1,.278.28h0A.279.279,0,0,1,984.573,459.853Z" transform="translate(-955.258 -459.225)" fill="#e0e0e0"/>
            </g>
          </g>
          <g id="Group_241" data-name="Group 241" transform="translate(0 0.228)">
            <g id="Group_240" data-name="Group 240">
              <path id="Path_36887" data-name="Path 36887" d="M966.208,459.809l-10.672-.026a.279.279,0,0,1-.278-.28h0a.279.279,0,0,1,.28-.279l10.672.026a.242.242,0,0,1,.242.243v.073A.242.242,0,0,1,966.208,459.809Z" transform="translate(-955.258 -459.225)" fill="#e62446"/>
            </g>
          </g>
          <g id="Group_243" data-name="Group 243" transform="translate(10.41)">
            <g id="Group_242" data-name="Group 242">
              <path id="Path_36888" data-name="Path 36888" d="M979.069,459.261a.533.533,0,1,1-.532-.535A.534.534,0,0,1,979.069,459.261Z" transform="translate(-978.003 -458.726)" fill="#e62446"/>
            </g>
          </g>
        </g>
        <g id="Group_245" data-name="Group 245" transform="translate(4.078 40.052)">
          <path id="Path_36889" data-name="Path 36889" d="M985.074,471.653c0,.066-6.489.1-14.491.085s-14.492-.088-14.492-.154,6.488-.1,14.493-.085S985.074,471.587,985.074,471.653Z" transform="translate(-956.09 -471.494)" fill="#263238"/>
        </g>
        <g id="Group_246" data-name="Group 246" transform="translate(4.071 42.917)">
          <path id="Path_36890" data-name="Path 36890" d="M985.059,477.913c0,.066-6.489.1-14.492.085s-14.493-.088-14.493-.154,6.488-.1,14.493-.085S985.059,477.847,985.059,477.913Z" transform="translate(-956.075 -477.754)" fill="#263238"/>
        </g>
        <g id="Group_247" data-name="Group 247" transform="translate(4.064 45.782)">
          <path id="Path_36891" data-name="Path 36891" d="M985.044,484.173c0,.066-6.489.1-14.492.085s-14.492-.088-14.492-.154,6.488-.1,14.493-.085S985.044,484.107,985.044,484.173Z" transform="translate(-956.06 -484.014)" fill="#263238"/>
        </g>
      </g>
      <g id="Group_255" data-name="Group 255" transform="translate(65.456)">
        <g id="Group_252" data-name="Group 252">
          <g id="Group_251" data-name="Group 251">
            <g id="Group_250" data-name="Group 250">
              <path id="Path_36892" data-name="Path 36892" d="M980.385,211.543l-5.416-.025a1.343,1.343,0,0,0-1.321,1.365l0,.979a1.343,1.343,0,0,1-1.32,1.365l-10.557-.049a1.344,1.344,0,0,1-1.309-1.377l0-.979a1.345,1.345,0,0,0-1.309-1.377l-1.9-.009-4.74-.022a4.256,4.256,0,0,0-4.281,4.232l-.289,68.162a4.256,4.256,0,0,0,4.242,4.268l27.877.128a4.255,4.255,0,0,0,4.281-4.231l.289-68.162A4.255,4.255,0,0,0,980.385,211.543Z" transform="translate(-947.891 -211.38)" fill="#fff"/>
              <g id="Group_249" data-name="Group 249">
                <path id="Path_36893" data-name="Path 36893" d="M980.33,211.5l.146.005a3.147,3.147,0,0,1,.431.036,4.011,4.011,0,0,1,1.593.556,4.276,4.276,0,0,1,1.775,2.058,4.376,4.376,0,0,1,.313,1.726q0,.942-.006,2.005c-.021,5.67-.05,13.868-.087,24s-.087,22.2-.141,35.59q-.01,2.512-.021,5.085a9.473,9.473,0,0,1-.187,2.582,4.239,4.239,0,0,1-1.468,2.147,4.265,4.265,0,0,1-2.465.909c-.89.017-1.777,0-2.672,0l-5.417-.024-11.116-.05-5.686-.026-2.872-.013a4.506,4.506,0,0,1-2.762-.768,4.345,4.345,0,0,1-1.679-2.324,4.669,4.669,0,0,1-.174-1.436q0-.719.006-1.434.012-2.863.024-5.687.024-5.647.047-11.119c.032-7.29.063-14.322.092-21.021s.059-13.064.085-19.021q.02-4.468.039-8.62a8.6,8.6,0,0,1,.132-2.051,4.236,4.236,0,0,1,.924-1.782,4.423,4.423,0,0,1,1.592-1.152,4.65,4.65,0,0,1,1.893-.327l3.708.018,1.784.01.874,0a1.335,1.335,0,0,1,.827.254,1.4,1.4,0,0,1,.5.693,2.505,2.505,0,0,1,.072.839,7.915,7.915,0,0,0,.014.819,1.355,1.355,0,0,0,.334.709,1.281,1.281,0,0,0,.663.392,4.9,4.9,0,0,0,.779.033l1.535.008,5.608.03,2.473.013c.2,0,.393.011.579-.007a1.254,1.254,0,0,0,.522-.186,1.35,1.35,0,0,0,.6-.861,7.847,7.847,0,0,0,.036-1.027,1.672,1.672,0,0,1,.193-.947,1.332,1.332,0,0,1,.685-.589,2.207,2.207,0,0,1,.844-.083l2.759.017,2.275.02h-2.275l-2.759-.008a2.184,2.184,0,0,0-.833.083,1.3,1.3,0,0,0-.668.577,1.637,1.637,0,0,0-.186.931,7.79,7.79,0,0,1-.035,1.034,1.387,1.387,0,0,1-.611.887,1.3,1.3,0,0,1-.539.192c-.2.019-.387.005-.584.008l-2.472-.009-5.609-.022-1.535-.006a4.853,4.853,0,0,1-.79-.033,1.336,1.336,0,0,1-.693-.408,1.412,1.412,0,0,1-.35-.738,7.957,7.957,0,0,1-.016-.828,2.447,2.447,0,0,0-.07-.82,1.342,1.342,0,0,0-.478-.663c-.461-.361-1.091-.209-1.665-.246l-1.783-.007-3.708-.016a4.583,4.583,0,0,0-1.866.324,4.355,4.355,0,0,0-1.565,1.135,4.167,4.167,0,0,0-.907,1.753,8.534,8.534,0,0,0-.129,2.034q-.016,4.148-.034,8.62c-.024,5.957-.049,12.323-.076,19.021s-.056,13.73-.087,21.021q-.023,5.468-.046,11.119-.012,2.824-.024,5.687,0,.716-.006,1.434a4.579,4.579,0,0,0,.17,1.409,4.252,4.252,0,0,0,1.642,2.272,4.412,4.412,0,0,0,2.708.751l2.871.013,5.686.026,11.116.052,5.417.026c.893,0,1.787.019,2.667,0a4.177,4.177,0,0,0,2.413-.889,4.148,4.148,0,0,0,1.437-2.1,9.4,9.4,0,0,0,.184-2.557q.012-2.572.022-5.085c.061-13.394.115-25.458.161-35.59s.089-18.326.117-24c-.031-1.406.161-2.7-.3-3.72a4.258,4.258,0,0,0-1.758-2.052,4.037,4.037,0,0,0-1.584-.563,3.381,3.381,0,0,0-.43-.04Z" transform="translate(-947.836 -211.34)" fill="#263238"/>
              </g>
            </g>
          </g>
        </g>
        <g id="Group_254" data-name="Group 254" transform="translate(5.67 9.918)">
          <g id="Group_253" data-name="Group 253">
            <path id="Path_36894" data-name="Path 36894" d="M986.524,233.132c0,.067-5.888.121-13.149.121s-13.151-.054-13.151-.121,5.886-.12,13.151-.12S986.524,233.066,986.524,233.132Z" transform="translate(-960.225 -233.012)" fill="#263238"/>
          </g>
        </g>
      </g>
      <rect id="Rectangle_140" data-name="Rectangle 140" width="23.899" height="16.594" transform="translate(72.35 53.925)" fill="#e62446"/>
      <g id="Group_282" data-name="Group 282" transform="translate(0 16.744)">
        <g id="Group_264" data-name="Group 264">
          <g id="Group_263" data-name="Group 263">
            <g id="Group_262" data-name="Group 262">
              <g id="Group_261" data-name="Group 261">
                <g id="Group_260" data-name="Group 260">
                  <g id="Group_259" data-name="Group 259">
                    <g id="Group_256" data-name="Group 256" transform="translate(0.09 0.064)">
                      <path id="Path_36895" data-name="Path 36895" d="M853.181,248.091l-8.114,0a2.015,2.015,0,0,0-1.97,2.058v1.472a2.015,2.015,0,0,1-1.97,2.058l-15.815-.009a2.017,2.017,0,0,1-1.97-2.061v-1.471a2.018,2.018,0,0,0-1.97-2.061l-2.853,0-7.1,0a6.384,6.384,0,0,0-6.388,6.383l-.02,102.4a6.384,6.384,0,0,0,6.38,6.385l41.763.024a6.384,6.384,0,0,0,6.388-6.383l.02-102.4A6.384,6.384,0,0,0,853.181,248.091Z" transform="translate(-805.01 -248.066)" fill="#fff"/>
                    </g>
                    <g id="Group_258" data-name="Group 258">
                      <g id="Group_257" data-name="Group 257">
                        <path id="Path_36896" data-name="Path 36896" d="M853.074,248.015s.073,0,.219.006a4.734,4.734,0,0,1,.647.05,6,6,0,0,1,2.394.827,6.108,6.108,0,0,1,1.457,1.18,6.384,6.384,0,0,1,1.216,1.906,6.608,6.608,0,0,1,.478,2.592q0,1.414,0,3.009c.005,8.507.012,20.814.022,36.02s.005,33.316.009,53.422V356.6a6.825,6.825,0,0,1-.245,1.947,6.461,6.461,0,0,1-.815,1.8,6.92,6.92,0,0,1-1.33,1.475,6.46,6.46,0,0,1-3.687,1.431c-1.339.039-2.668.01-4.012.018l-8.13,0-16.686-.008-8.534,0-4.311,0a6.745,6.745,0,0,1-4.157-1.148,6.538,6.538,0,0,1-2.531-3.5,7.046,7.046,0,0,1-.266-2.16q0-1.078,0-2.152,0-4.3,0-8.537,0-8.477.005-16.691c0-10.942.008-21.5.011-31.552s.009-19.609.014-28.551q0-6.706.008-12.939,0-.778,0-1.548c0-.257.022-.518.036-.774.045-.254.065-.513.13-.761a6.532,6.532,0,0,1,1.343-2.705,6.48,6.48,0,0,1,5.206-2.307l5.565.006,2.677,0,1.312,0a2.041,2.041,0,0,1,1.256.351,2.111,2.111,0,0,1,.781,1.026,3.423,3.423,0,0,1,.13,1.261q0,.312,0,.621a4.591,4.591,0,0,0,.02.609,2.021,2.021,0,0,0,.477,1.069,1.881,1.881,0,0,0,.975.605,2.153,2.153,0,0,0,.575.057h.588l2.3,0,8.418.012,3.712.006c.293-.005.591.014.87-.011a1.873,1.873,0,0,0,.781-.275,2.021,2.021,0,0,0,.895-1.286,3.517,3.517,0,0,0,.05-.775q0-.388,0-.764a4.384,4.384,0,0,1,.034-.745,2.157,2.157,0,0,1,.241-.684,2.014,2.014,0,0,1,1.019-.9,3.2,3.2,0,0,1,1.268-.135l4.141.011,2.546.01c.574,0,.868.01.868.01s-.294.006-.868.009l-2.546.007-4.141.006a3.154,3.154,0,0,0-1.246.135,1.957,1.957,0,0,0-.987.877,2.1,2.1,0,0,0-.232.664,4.265,4.265,0,0,0-.031.734v.764a3.619,3.619,0,0,1-.05.79,2.091,2.091,0,0,1-.924,1.334,1.951,1.951,0,0,1-.812.288c-.3.026-.581.007-.878.013l-3.712,0-8.418,0h-2.892a2.276,2.276,0,0,1-.6-.059,1.99,1.99,0,0,1-1.032-.638,2.128,2.128,0,0,1-.5-1.125,4.752,4.752,0,0,1-.022-.623v-.621a3.308,3.308,0,0,0-.124-1.222,2,2,0,0,0-.74-.969,1.925,1.925,0,0,0-1.192-.329h-9.554a6.35,6.35,0,0,0-5.1,2.265,6.4,6.4,0,0,0-1.312,2.649c-.065.243-.083.5-.127.745-.013.253-.031.5-.035.76q0,.77,0,1.548,0,6.226,0,12.939c0,8.942,0,18.5,0,28.551s0,20.61,0,31.553q0,8.206,0,16.691,0,4.238,0,8.537,0,1.074,0,2.152a6.843,6.843,0,0,0,.26,2.109,6.353,6.353,0,0,0,2.46,3.4,6.56,6.56,0,0,0,4.055,1.116l4.31,0,8.534.005,16.686.011,8.13.006c1.34-.008,2.684.022,4-.017a6.285,6.285,0,0,0,3.589-1.391,6.728,6.728,0,0,0,1.3-1.436,6.292,6.292,0,0,0,.794-1.751,6.658,6.658,0,0,0,.239-1.9q0-.971,0-1.936,0-3.862,0-7.632c.011-20.107.022-38.214.03-53.422s.027-27.513.036-36.02q0-1.595.005-3.009a6.565,6.565,0,0,0-.466-2.572,6.347,6.347,0,0,0-1.2-1.9,6.121,6.121,0,0,0-1.442-1.179,6.052,6.052,0,0,0-2.379-.84,5.024,5.024,0,0,0-.645-.059C853.147,248.021,853.074,248.015,853.074,248.015Z" transform="translate(-804.813 -247.926)" fill="#263238"/>
                      </g>
                    </g>
                  </g>
                </g>
              </g>
            </g>
          </g>
        </g>
        <g id="Group_277" data-name="Group 277" transform="translate(44.846 11.079)">
          <g id="Group_268" data-name="Group 268">
            <g id="Group_267" data-name="Group 267">
              <g id="Group_266" data-name="Group 266">
                <g id="Group_265" data-name="Group 265">
                  <path id="Path_36897" data-name="Path 36897" d="M907.515,272.167c0,.027-1.055.058-2.357.069s-2.357,0-2.357-.03,1.054-.059,2.357-.069S907.515,272.139,907.515,272.167Z" transform="translate(-902.802 -272.133)" fill="#263238"/>
                </g>
              </g>
            </g>
          </g>
          <g id="Group_272" data-name="Group 272" transform="translate(0.01 1.206)">
            <g id="Group_271" data-name="Group 271">
              <g id="Group_270" data-name="Group 270">
                <g id="Group_269" data-name="Group 269">
                  <path id="Path_36898" data-name="Path 36898" d="M907.537,274.8c0,.027-1.055.058-2.357.069s-2.357,0-2.357-.03,1.055-.059,2.357-.069S907.536,274.774,907.537,274.8Z" transform="translate(-902.823 -274.768)" fill="#263238"/>
                </g>
              </g>
            </g>
          </g>
          <g id="Group_276" data-name="Group 276" transform="translate(0.02 2.412)">
            <g id="Group_275" data-name="Group 275">
              <g id="Group_274" data-name="Group 274">
                <g id="Group_273" data-name="Group 273">
                  <path id="Path_36899" data-name="Path 36899" d="M907.558,277.437c0,.027-1.055.058-2.356.069s-2.357,0-2.357-.03,1.055-.059,2.357-.069S907.558,277.409,907.558,277.437Z" transform="translate(-902.845 -277.403)" fill="#263238"/>
                </g>
              </g>
            </g>
          </g>
        </g>
        <g id="Group_281" data-name="Group 281" transform="translate(4.663 10.352)">
          <g id="Group_280" data-name="Group 280">
            <g id="Group_279" data-name="Group 279">
              <g id="Group_278" data-name="Group 278">
                <path id="Path_36900" data-name="Path 36900" d="M815.052,274.491a.72.72,0,0,1,.1-.006l.273-.009,1.006-.024-.027.028c0-.223-.008-.467-.012-.73,0-.136-.012-.264,0-.42a.386.386,0,0,1,.338-.31c.162,0,.305-.011.481,0a.39.39,0,0,1,.33.389l.012,1.065-.047-.046,1.269-.013-.048.049c0-.511-.009-1.04-.014-1.582l0-.4a.413.413,0,0,0-.178-.3l-.555-.547-.536-.529-.26-.256c-.089-.086-.159-.174-.263-.2a.341.341,0,0,0-.291.056c-.077.065-.159.157-.237.232l-.455.46c-.286.3-.585.569-.8.827a.9.9,0,0,0-.064.474c0,.157,0,.307,0,.447q0,.412,0,.721c0,.184,0,.336-.005.461,0,.106,0,.163-.006.166a1.061,1.061,0,0,1-.009-.153l-.013-.454q-.007-.312-.016-.726,0-.216-.008-.456c0-.081,0-.164,0-.249a.524.524,0,0,1,.07-.266c.235-.288.515-.542.8-.849l.452-.463c.082-.08.148-.159.245-.243a.429.429,0,0,1,.368-.072.685.685,0,0,1,.3.218l.26.255.537.526.556.546a1.029,1.029,0,0,1,.142.154.411.411,0,0,1,.066.214q0,.2,0,.405c0,.542.008,1.07.012,1.582v.049h-.048l-1.27.008h-.047v-.046c0-.368,0-.724-.005-1.065a.306.306,0,0,0-.257-.308c-.146-.008-.318,0-.46,0a.312.312,0,0,0-.274.247c-.012.128,0,.276-.005.406v.758h-.028l-1.023-.007-.267,0A.527.527,0,0,1,815.052,274.491Z" transform="translate(-815.002 -270.545)" fill="#263238"/>
              </g>
            </g>
          </g>
        </g>
      </g>
      <g id="Group_306" data-name="Group 306" transform="translate(7.319 96.39)">
        <g id="Group_285" data-name="Group 285">
          <g id="Group_284" data-name="Group 284">
            <g id="Group_283" data-name="Group 283">
              <rect id="Rectangle_141" data-name="Rectangle 141" width="9.744" height="9.744" fill="#e62446"/>
            </g>
          </g>
        </g>
        <g id="Group_302" data-name="Group 302" transform="translate(13.935 0.965)">
          <g id="Group_289" data-name="Group 289">
            <g id="Group_288" data-name="Group 288">
              <g id="Group_287" data-name="Group 287">
                <g id="Group_286" data-name="Group 286">
                  <path id="Path_36901" data-name="Path 36901" d="M865.807,424.144c0,.046-3.258.083-7.277.083s-7.277-.037-7.277-.083,3.258-.083,7.277-.083S865.807,424.1,865.807,424.144Z" transform="translate(-851.253 -424.061)" fill="#e62446"/>
                </g>
              </g>
            </g>
          </g>
          <g id="Group_293" data-name="Group 293" transform="translate(0 2.987)">
            <g id="Group_292" data-name="Group 292">
              <g id="Group_291" data-name="Group 291">
                <g id="Group_290" data-name="Group 290">
                  <path id="Path_36902" data-name="Path 36902" d="M877.412,430.671c0,.046-5.856.083-13.079.083s-13.081-.037-13.081-.083,5.855-.083,13.081-.083S877.412,430.625,877.412,430.671Z" transform="translate(-851.253 -430.588)" fill="#263238"/>
                </g>
              </g>
            </g>
          </g>
          <g id="Group_297" data-name="Group 297" transform="translate(0 5.12)">
            <g id="Group_296" data-name="Group 296">
              <g id="Group_295" data-name="Group 295">
                <g id="Group_294" data-name="Group 294">
                  <path id="Path_36903" data-name="Path 36903" d="M877.1,435.332c0,.046-5.787.083-12.925.083s-12.926-.037-12.926-.083,5.786-.083,12.926-.083S877.1,435.286,877.1,435.332Z" transform="translate(-851.253 -435.249)" fill="#263238"/>
                </g>
              </g>
            </g>
          </g>
          <g id="Group_301" data-name="Group 301" transform="translate(0 7.155)">
            <g id="Group_300" data-name="Group 300">
              <g id="Group_299" data-name="Group 299">
                <g id="Group_298" data-name="Group 298">
                  <path id="Path_36904" data-name="Path 36904" d="M866.517,439.778c0,.046-3.417.083-7.632.083s-7.632-.037-7.632-.083,3.417-.083,7.632-.083S866.517,439.732,866.517,439.778Z" transform="translate(-851.253 -439.695)" fill="#263238"/>
                </g>
              </g>
            </g>
          </g>
        </g>
        <g id="Group_305" data-name="Group 305" opacity="0.3">
          <g id="Group_304" data-name="Group 304">
            <g id="Group_303" data-name="Group 303">
              <rect id="Rectangle_142" data-name="Rectangle 142" width="9.744" height="9.744"/>
            </g>
          </g>
        </g>
      </g>
      <g id="Group_330" data-name="Group 330" transform="translate(7.319 112.249)">
        <g id="Group_309" data-name="Group 309">
          <g id="Group_308" data-name="Group 308">
            <g id="Group_307" data-name="Group 307">
              <rect id="Rectangle_143" data-name="Rectangle 143" width="9.744" height="9.744" fill="#e62446"/>
            </g>
          </g>
        </g>
        <g id="Group_326" data-name="Group 326" transform="translate(13.935 0.966)">
          <g id="Group_313" data-name="Group 313">
            <g id="Group_312" data-name="Group 312">
              <g id="Group_311" data-name="Group 311">
                <g id="Group_310" data-name="Group 310">
                  <path id="Path_36905" data-name="Path 36905" d="M865.807,458.8c0,.046-3.258.083-7.277.083s-7.277-.037-7.277-.083,3.258-.083,7.277-.083S865.807,458.751,865.807,458.8Z" transform="translate(-851.253 -458.714)" fill="#e62446"/>
                </g>
              </g>
            </g>
          </g>
          <g id="Group_317" data-name="Group 317" transform="translate(0 2.987)">
            <g id="Group_316" data-name="Group 316">
              <g id="Group_315" data-name="Group 315">
                <g id="Group_314" data-name="Group 314">
                  <path id="Path_36906" data-name="Path 36906" d="M877.412,465.323c0,.046-5.856.083-13.079.083s-13.081-.037-13.081-.083,5.855-.083,13.081-.083S877.412,465.277,877.412,465.323Z" transform="translate(-851.253 -465.24)" fill="#263238"/>
                </g>
              </g>
            </g>
          </g>
          <g id="Group_321" data-name="Group 321" transform="translate(0 5.12)">
            <g id="Group_320" data-name="Group 320">
              <g id="Group_319" data-name="Group 319">
                <g id="Group_318" data-name="Group 318">
                  <path id="Path_36907" data-name="Path 36907" d="M877.1,469.984c0,.046-5.787.083-12.925.083s-12.926-.037-12.926-.083,5.786-.083,12.926-.083S877.1,469.938,877.1,469.984Z" transform="translate(-851.253 -469.901)" fill="#263238"/>
                </g>
              </g>
            </g>
          </g>
          <g id="Group_325" data-name="Group 325" transform="translate(0 7.155)">
            <g id="Group_324" data-name="Group 324">
              <g id="Group_323" data-name="Group 323">
                <g id="Group_322" data-name="Group 322">
                  <path id="Path_36908" data-name="Path 36908" d="M866.517,474.431c0,.046-3.417.083-7.632.083s-7.632-.037-7.632-.083,3.417-.083,7.632-.083S866.517,474.385,866.517,474.431Z" transform="translate(-851.253 -474.348)" fill="#263238"/>
                </g>
              </g>
            </g>
          </g>
        </g>
        <g id="Group_329" data-name="Group 329" opacity="0.3">
          <g id="Group_328" data-name="Group 328">
            <g id="Group_327" data-name="Group 327">
              <rect id="Rectangle_144" data-name="Rectangle 144" width="9.744" height="9.744"/>
            </g>
          </g>
        </g>
      </g>
      <g id="Group_348" data-name="Group 348" transform="translate(7.885 44.856)">
        <g id="Group_345" data-name="Group 345" transform="translate(4.398)">
          <g id="Group_332" data-name="Group 332" transform="translate(0.388)">
            <g id="Group_331" data-name="Group 331">
              <rect id="Rectangle_145" data-name="Rectangle 145" width="22.56" height="30.015" transform="matrix(0.006, -1, 1, 0.006, 0, 22.559)" fill="#e62446"/>
            </g>
          </g>
          <g id="Group_334" data-name="Group 334" transform="translate(0 8.595)">
            <g id="Group_333" data-name="Group 333">
              <path id="Path_36909" data-name="Path 36909" d="M831.651,342.1l10.561-13.964,6.445,8.809,4.431-4.666,8.577,9.988Z" transform="translate(-831.651 -328.131)" fill="#e62446"/>
            </g>
          </g>
          <g id="Group_338" data-name="Group 338" transform="translate(15.095 4.552)">
            <g id="Group_337" data-name="Group 337">
              <g id="Group_336" data-name="Group 336">
                <g id="Group_335" data-name="Group 335">
                  <path id="Path_36910" data-name="Path 36910" d="M869.36,321.674a2.363,2.363,0,1,1-2.35-2.376A2.363,2.363,0,0,1,869.36,321.674Z" transform="translate(-864.634 -319.298)" fill="#e62446"/>
                </g>
              </g>
            </g>
          </g>
          <g id="Group_340" data-name="Group 340" transform="translate(0 8.595)" opacity="0.2">
            <g id="Group_339" data-name="Group 339">
              <path id="Path_36911" data-name="Path 36911" d="M831.651,342.1l10.561-13.964,6.445,8.809,4.431-4.666,8.577,9.988Z" transform="translate(-831.651 -328.131)"/>
            </g>
          </g>
          <g id="Group_344" data-name="Group 344" transform="translate(15.095 4.552)" opacity="0.2">
            <g id="Group_343" data-name="Group 343">
              <g id="Group_342" data-name="Group 342">
                <g id="Group_341" data-name="Group 341">
                  <path id="Path_36912" data-name="Path 36912" d="M869.36,321.674a2.363,2.363,0,1,1-2.35-2.376A2.363,2.363,0,0,1,869.36,321.674Z" transform="translate(-864.634 -319.298)"/>
                </g>
              </g>
            </g>
          </g>
        </g>
        <g id="Group_346" data-name="Group 346" transform="translate(0 26.895)">
          <path id="Path_36913" data-name="Path 36913" d="M860.978,368.235c0,.066-8.717.119-19.467.119s-19.469-.053-19.469-.119,8.715-.119,19.469-.119S860.978,368.17,860.978,368.235Z" transform="translate(-822.042 -368.116)" fill="#263238"/>
        </g>
        <g id="Group_347" data-name="Group 347" transform="translate(0 29.429)">
          <path id="Path_36914" data-name="Path 36914" d="M860.978,373.773c0,.066-8.717.119-19.467.119s-19.469-.054-19.469-.119,8.715-.119,19.469-.119S860.978,373.708,860.978,373.773Z" transform="translate(-822.042 -373.654)" fill="#263238"/>
        </g>
      </g>
      <path id="Path_36915" data-name="Path 36915" d="M859.462,392.572H846.768a3.327,3.327,0,0,1-3.328-3.328h0a3.327,3.327,0,0,1,3.328-3.327h12.694a3.327,3.327,0,0,1,3.327,3.327h0A3.327,3.327,0,0,1,859.462,392.572Z" transform="translate(-825.762 -306.019)" fill="#e62446"/>
      <g id="Group_349" data-name="Group 349" transform="translate(0.486 89.74)">
        <path id="Path_36916" data-name="Path 36916" d="M859.483,407.541c0,.066-12,.119-26.8.119s-26.805-.053-26.805-.119,12-.119,26.805-.119S859.483,407.476,859.483,407.541Z" transform="translate(-805.875 -407.422)" fill="#e0e0e0"/>
      </g>
      <g id="Group_350" data-name="Group 350" transform="translate(16.307 39.244)">
        <path id="Path_36917" data-name="Path 36917" d="M862.535,297.207c0,.066-4.945.119-11.045.119s-11.047-.054-11.047-.119,4.945-.119,11.047-.119S862.535,297.142,862.535,297.207Z" transform="translate(-840.444 -297.088)" fill="#e62446"/>
      </g>
      <path id="Path_36918" data-name="Path 36918" d="M891.83,392.33a.724.724,0,1,1-.724-.724A.724.724,0,0,1,891.83,392.33Z" transform="translate(-851.221 -309.105)" fill="#e62446"/>
      <g id="Group_351" data-name="Group 351" transform="translate(39.886 35.437)">
        <path id="Path_36919" data-name="Path 36919" d="M921.975,288.851a.985.985,0,0,1-.177.011l-.52.011-2.01.021-7.485.036.08-.08c0,7.012-.011,17.243-.018,28.617-.02,6.977-.038,13.522-.054,19.09v.1h-.1l-14.294-.043-4.01-.029-1.057-.016-.271-.008a.046.046,0,1,1,0-.016l.271-.008,1.057-.016,4.01-.029,14.294-.043-.1.1c.006-5.568.014-12.113.022-19.09.038-11.374.072-21.6.1-28.617v-.081h.08l7.485.037,2.01.021.52.011A1.116,1.116,0,0,1,921.975,288.851Z" transform="translate(-891.964 -288.77)" fill="#e62446"/>
      </g>
      <g id="Group_355" data-name="Group 355" transform="translate(80.831 58.723)">
        <g id="Group_353" data-name="Group 353">
          <g id="Group_352" data-name="Group 352">
            <circle id="Ellipse_32" data-name="Ellipse 32" cx="3.468" cy="3.468" r="3.468" fill="#fff"/>
          </g>
        </g>
        <g id="Group_354" data-name="Group 354" transform="translate(2.615 1.906)">
          <path id="Path_36920" data-name="Path 36920" d="M987.143,345.376v-1.563l1.353.781,1.353.781-1.353.781-1.353.781Z" transform="translate(-987.143 -343.814)" fill="#e62446"/>
        </g>
      </g>
      <g id="Group_364" data-name="Group 364" transform="translate(71.693 13.93)">
        <g id="Group_357" data-name="Group 357" transform="translate(0.307 0)">
          <g id="Group_356" data-name="Group 356">
            <rect id="Rectangle_146" data-name="Rectangle 146" width="17.81" height="23.695" transform="translate(0 17.809) rotate(-89.681)" fill="#455a64"/>
          </g>
        </g>
        <g id="Group_359" data-name="Group 359" transform="translate(0 6.785)">
          <g id="Group_358" data-name="Group 358">
            <path id="Path_36921" data-name="Path 36921" d="M961.462,267.627,969.8,256.6l5.088,6.955,3.5-3.683,6.771,7.885Z" transform="translate(-961.462 -256.603)" fill="#263238"/>
          </g>
        </g>
        <g id="Group_363" data-name="Group 363" transform="translate(11.917 3.594)">
          <g id="Group_362" data-name="Group 362">
            <g id="Group_361" data-name="Group 361">
              <g id="Group_360" data-name="Group 360">
                <path id="Path_36922" data-name="Path 36922" d="M991.231,251.506a1.866,1.866,0,1,1-1.855-1.876A1.866,1.866,0,0,1,991.231,251.506Z" transform="translate(-987.5 -249.63)" fill="#263238"/>
              </g>
            </g>
          </g>
        </g>
      </g>
      <g id="Group_365" data-name="Group 365" transform="translate(74.764 35.273)">
        <rect id="Rectangle_147" data-name="Rectangle 147" width="18.343" height="1.227" fill="#455a64"/>
      </g>
      <g id="Group_367" data-name="Group 367" transform="translate(70.785 39.902)">
        <g id="Group_366" data-name="Group 366">
          <path id="Path_36923" data-name="Path 36923" d="M985.778,298.647c0,.066-5.888.12-13.149.12s-13.151-.054-13.151-.12,5.886-.121,13.151-.121S985.778,298.58,985.778,298.647Z" transform="translate(-959.479 -298.526)" fill="#263238"/>
        </g>
      </g>
      <g id="Group_369" data-name="Group 369" transform="translate(70.785 43.261)">
        <g id="Group_368" data-name="Group 368">
          <path id="Path_36924" data-name="Path 36924" d="M985.778,305.986c0,.067-5.888.12-13.149.12s-13.151-.054-13.151-.12,5.886-.12,13.151-.12S985.778,305.92,985.778,305.986Z" transform="translate(-959.479 -305.866)" fill="#263238"/>
        </g>
      </g>
      <g id="Group_371" data-name="Group 371" transform="translate(70.785 46.62)">
        <g id="Group_370" data-name="Group 370">
          <path id="Path_36925" data-name="Path 36925" d="M985.778,313.325c0,.067-5.888.12-13.149.12s-13.151-.054-13.151-.12,5.886-.12,13.151-.12S985.778,313.259,985.778,313.325Z" transform="translate(-959.479 -313.205)" fill="#263238"/>
        </g>
      </g>
      <g id="Group_373" data-name="Group 373" transform="translate(70.785 49.979)">
        <g id="Group_372" data-name="Group 372">
          <path id="Path_36926" data-name="Path 36926" d="M985.778,320.664c0,.067-5.888.121-13.149.121s-13.151-.054-13.151-.121,5.886-.12,13.151-.12S985.778,320.6,985.778,320.664Z" transform="translate(-959.479 -320.544)" fill="#263238"/>
        </g>
      </g>
      <path id="Path_36927" data-name="Path 36927" d="M957.4,288.089a.724.724,0,1,1-.724-.724A.724.724,0,0,1,957.4,288.089Z" transform="translate(-886.784 -252.571)" fill="#e62446"/>
      <g id="Group_375" data-name="Group 375" transform="translate(83.601 72.159)">
        <path id="Path_36928" data-name="Path 36928" d="M988.878,369.625a.7.7,0,1,1-.7-.618A.662.662,0,0,1,988.878,369.625Z" transform="translate(-987.482 -369.007)" fill="#e62446"/>
        <path id="Path_36929" data-name="Path 36929" d="M988.878,405.28a.7.7,0,1,1-.7-.618A.662.662,0,0,1,988.878,405.28Z" transform="translate(-987.482 -388.344)" fill="#e62446"/>
        <g id="Group_374" data-name="Group 374" transform="translate(0.579 0.618)">
          <path id="Path_36930" data-name="Path 36930" d="M988.866,386.676c-.066,0-.119-3.653-.119-8.159s.054-8.159.119-8.159.119,3.653.119,8.159S988.932,386.676,988.866,386.676Z" transform="translate(-988.747 -370.358)" fill="#e62446"/>
        </g>
      </g>
    </g>
    <g id="Group_377" data-name="Group 377" transform="translate(714.596 181.631)">
      <path id="Path_36931" data-name="Path 36931" d="M815.671,254.842a.556.556,0,0,1-.01-.124c0-.093-.005-.213-.01-.364,0-.335-.011-.806-.019-1.411-.008-1.243-.02-3.03-.034-5.262-.011-4.5-.025-10.789-.042-18.021l.116.116-7.986,0-23.456-.035-7.108-.038-1.933-.022-.5-.011a.086.086,0,1,1,0-.025l.5-.011,1.933-.022,7.108-.038,23.456-.035,7.986,0h.116v.116c-.017,7.232-.032,13.523-.042,18.021-.015,2.232-.026,4.019-.034,5.262-.008.6-.015,1.076-.019,1.411,0,.151-.008.271-.01.364A.556.556,0,0,1,815.671,254.842Z" transform="translate(-774.515 -229.541)" fill="#e62446"/>
    </g>
    <path id="Path_36932" data-name="Path 36932" d="M864.308,283.966a.724.724,0,1,1-.724-.724A.724.724,0,0,1,864.308,283.966Z" transform="translate(-107.832 -77.034)" fill="#e62446"/>
    <path id="Path_36933" data-name="Path 36933" d="M774.381,228.944a.724.724,0,1,1-.724-.724A.724.724,0,0,1,774.381,228.944Z" transform="translate(-59.061 -47.193)" fill="#e62446"/>
  </g>
</svg>
