<?xml version="1.0" standalone="no"?>
<svg xmlns:xlink="http://www.w3.org/1999/xlink" id="wave" style="transform:rotate(0deg); transition: 0.3s" viewBox="0 0 1440 350" version="1.1" xmlns="http://www.w3.org/2000/svg"><defs><linearGradient id="sw-gradient-0" x1="0" x2="0" y1="1" y2="0"><stop stop-color="rgba(243, 106, 62, 1)" offset="0%"/><stop stop-color="rgba(255, 179, 11, 1)" offset="100%"/></linearGradient></defs><path style="transform:translate(0, 0px); opacity:1" fill="url(#sw-gradient-0)" d="M0,245L24,210C48,175,96,105,144,105C192,105,240,175,288,180.8C336,187,384,128,432,128.3C480,128,528,187,576,198.3C624,210,672,175,720,186.7C768,198,816,257,864,285.8C912,315,960,315,1008,315C1056,315,1104,315,1152,291.7C1200,268,1248,222,1296,215.8C1344,210,1392,245,1440,215.8C1488,187,1536,93,1584,58.3C1632,23,1680,47,1728,99.2C1776,152,1824,233,1872,245C1920,257,1968,198,2016,145.8C2064,93,2112,47,2160,23.3C2208,0,2256,0,2304,46.7C2352,93,2400,187,2448,204.2C2496,222,2544,163,2592,163.3C2640,163,2688,222,2736,245C2784,268,2832,257,2880,245C2928,233,2976,222,3024,215.8C3072,210,3120,210,3168,215.8C3216,222,3264,233,3312,210C3360,187,3408,128,3432,99.2L3456,70L3456,350L3432,350C3408,350,3360,350,3312,350C3264,350,3216,350,3168,350C3120,350,3072,350,3024,350C2976,350,2928,350,2880,350C2832,350,2784,350,2736,350C2688,350,2640,350,2592,350C2544,350,2496,350,2448,350C2400,350,2352,350,2304,350C2256,350,2208,350,2160,350C2112,350,2064,350,2016,350C1968,350,1920,350,1872,350C1824,350,1776,350,1728,350C1680,350,1632,350,1584,350C1536,350,1488,350,1440,350C1392,350,1344,350,1296,350C1248,350,1200,350,1152,350C1104,350,1056,350,1008,350C960,350,912,350,864,350C816,350,768,350,720,350C672,350,624,350,576,350C528,350,480,350,432,350C384,350,336,350,288,350C240,350,192,350,144,350C96,350,48,350,24,350L0,350Z"/><defs><linearGradient id="sw-gradient-1" x1="0" x2="0" y1="1" y2="0"><stop stop-color="rgba(243, 106, 62, 1)" offset="0%"/><stop stop-color="rgba(255, 179, 11, 1)" offset="100%"/></linearGradient></defs><path style="transform:translate(0, 50px); opacity:0.9" fill="url(#sw-gradient-1)" d="M0,70L24,70C48,70,96,70,144,93.3C192,117,240,163,288,192.5C336,222,384,233,432,204.2C480,175,528,105,576,99.2C624,93,672,152,720,192.5C768,233,816,257,864,250.8C912,245,960,210,1008,180.8C1056,152,1104,128,1152,145.8C1200,163,1248,222,1296,210C1344,198,1392,117,1440,105C1488,93,1536,152,1584,169.2C1632,187,1680,163,1728,163.3C1776,163,1824,187,1872,198.3C1920,210,1968,210,2016,215.8C2064,222,2112,233,2160,245C2208,257,2256,268,2304,250.8C2352,233,2400,187,2448,186.7C2496,187,2544,233,2592,210C2640,187,2688,93,2736,58.3C2784,23,2832,47,2880,46.7C2928,47,2976,23,3024,40.8C3072,58,3120,117,3168,134.2C3216,152,3264,128,3312,151.7C3360,175,3408,245,3432,280L3456,315L3456,350L3432,350C3408,350,3360,350,3312,350C3264,350,3216,350,3168,350C3120,350,3072,350,3024,350C2976,350,2928,350,2880,350C2832,350,2784,350,2736,350C2688,350,2640,350,2592,350C2544,350,2496,350,2448,350C2400,350,2352,350,2304,350C2256,350,2208,350,2160,350C2112,350,2064,350,2016,350C1968,350,1920,350,1872,350C1824,350,1776,350,1728,350C1680,350,1632,350,1584,350C1536,350,1488,350,1440,350C1392,350,1344,350,1296,350C1248,350,1200,350,1152,350C1104,350,1056,350,1008,350C960,350,912,350,864,350C816,350,768,350,720,350C672,350,624,350,576,350C528,350,480,350,432,350C384,350,336,350,288,350C240,350,192,350,144,350C96,350,48,350,24,350L0,350Z"/></svg>